<svg id="svg" xmlns="http://www.w3.org/2000/svg" xmlns:xlink="http://www.w3.org/1999/xlink" width="400" height="400" viewBox="65, 50, 325, 300"><g id="svgg"><path id="path0" d="M139.844 88.414 C 138.513 88.938,136.837 90.489,134.394 93.458 C 132.775 95.425,117.133 111.053,107.422 120.407 C 103.931 123.770,99.811 127.852,98.267 129.479 L 95.459 132.437 95.585 133.748 C 95.788 135.856,94.235 141.430,89.070 157.129 C 87.904 160.674,86.408 165.332,85.746 167.480 C 85.084 169.629,84.157 172.573,83.686 174.023 C 82.132 178.802,81.965 178.472,86.098 178.786 L 88.965 179.004 88.928 219.043 C 88.907 241.064,88.813 259.677,88.718 260.405 C 88.488 262.167,88.089 262.101,95.857 261.600 L 97.867 261.470 97.810 259.886 L 97.754 258.301 96.123 258.069 C 95.226 257.942,94.437 257.783,94.369 257.715 C 94.158 257.504,97.251 257.836,99.902 258.308 C 101.299 258.557,103.628 258.940,105.078 259.159 C 106.528 259.378,110.044 259.911,112.891 260.342 C 115.737 260.773,118.638 261.193,119.336 261.276 L 120.605 261.426 120.660 263.594 L 120.715 265.763 122.497 265.889 C 124.762 266.050,127.227 266.051,128.391 265.891 L 129.297 265.767 129.297 261.985 L 129.297 258.203 133.447 258.175 L 137.598 258.147 135.352 257.902 C 134.116 257.767,132.249 257.648,131.201 257.637 L 129.297 257.617 129.297 255.739 L 129.297 253.861 129.834 253.994 C 130.129 254.067,131.195 254.176,132.201 254.236 L 134.032 254.346 133.943 255.870 L 133.855 257.395 135.336 257.518 C 136.150 257.586,137.256 257.723,137.793 257.822 C 139.989 258.228,147.220 259.191,150.879 259.565 C 153.027 259.784,156.895 260.265,159.473 260.634 C 162.051 261.002,164.731 261.357,165.430 261.422 C 166.128 261.488,168.896 261.805,171.582 262.128 L 176.465 262.716 195.313 262.557 C 207.984 262.450,214.207 262.462,214.304 262.595 C 214.383 262.704,214.448 266.716,214.450 271.510 L 214.453 280.228 215.935 280.366 C 217.607 280.523,221.182 280.343,223.063 280.007 L 224.316 279.783 224.470 271.190 C 224.554 266.464,224.702 262.409,224.798 262.178 C 224.970 261.768,225.085 261.756,229.918 261.668 C 235.348 261.569,236.647 261.410,248.633 259.373 C 260.952 257.280,267.990 256.162,270.771 255.854 C 271.722 255.749,272.579 255.614,272.676 255.554 C 272.779 255.491,272.852 239.687,272.852 217.192 L 272.852 178.937 274.072 178.824 C 277.352 178.521,286.024 178.340,286.173 178.572 C 286.257 178.702,286.553 179.556,286.832 180.469 C 287.110 181.382,287.777 183.176,288.312 184.457 C 288.848 185.737,289.512 187.484,289.788 188.338 L 290.289 189.892 290.162 196.851 C 289.958 208.023,289.675 239.139,289.661 251.829 L 289.648 263.521 290.283 263.410 C 290.632 263.349,292.039 263.189,293.408 263.055 L 295.898 262.812 295.901 260.849 C 295.904 258.426,296.003 258.008,296.574 258.008 C 297.325 258.008,302.625 257.059,308.165 255.933 C 311.099 255.337,313.609 254.892,313.744 254.944 C 313.928 255.014,313.981 255.733,313.953 257.792 C 313.911 260.954,313.783 260.795,315.820 260.101 L 317.090 259.668 317.021 222.217 C 316.983 201.426,317.027 184.766,317.120 184.766 C 317.213 184.766,318.047 185.024,318.975 185.339 C 320.716 185.932,324.337 186.939,326.563 187.451 C 328.553 187.909,330.783 188.577,335.840 190.229 C 338.418 191.072,342.241 192.294,344.336 192.945 C 346.431 193.597,349.234 194.486,350.565 194.921 C 351.897 195.356,353.032 195.666,353.088 195.610 C 353.144 195.554,353.150 195.508,353.102 195.508 C 353.053 195.508,349.896 194.442,346.087 193.140 C 337.846 190.322,326.123 186.403,321.094 184.785 C 319.106 184.145,315.942 183.096,314.063 182.452 C 312.183 181.808,309.634 180.982,308.398 180.616 L 306.152 179.951 306.200 183.481 C 306.226 185.423,306.270 194.078,306.298 202.714 L 306.348 218.416 301.572 218.277 C 298.945 218.201,296.743 218.106,296.679 218.066 C 296.287 217.824,296.645 188.226,297.046 187.721 C 297.929 186.606,299.880 182.929,301.486 179.350 C 302.038 178.121,302.251 178.283,298.730 177.254 C 293.320 175.671,291.015 174.920,288.385 173.882 C 286.884 173.290,284.291 172.369,282.623 171.836 C 278.412 170.491,274.405 169.118,275.049 169.241 C 275.792 169.383,275.724 169.199,274.951 168.976 C 274.602 168.875,274.141 168.733,273.926 168.660 C 273.645 168.565,273.673 168.618,274.023 168.848 C 274.292 169.024,274.370 169.125,274.196 169.073 C 272.324 168.510,269.344 167.505,269.395 167.454 C 269.430 167.419,269.741 167.470,270.085 167.569 C 270.429 167.668,270.667 167.677,270.613 167.591 C 270.560 167.504,270.272 167.384,269.975 167.324 C 269.677 167.264,269.258 167.156,269.043 167.085 C 268.715 166.976,268.700 166.993,268.945 167.188 C 269.195 167.386,269.186 167.403,268.881 167.304 C 268.684 167.240,268.420 167.186,268.295 167.185 C 268.131 167.182,268.134 167.138,268.307 167.029 C 268.451 166.937,266.099 166.064,262.481 164.866 C 259.145 163.760,256.452 162.819,256.498 162.773 C 256.543 162.727,257.891 163.119,259.492 163.644 C 261.092 164.168,264.380 165.233,266.797 166.011 C 269.214 166.788,272.334 167.802,273.730 168.263 C 275.127 168.724,277.764 169.556,279.590 170.110 C 282.723 171.062,283.713 171.393,288.965 173.251 C 291.709 174.222,295.266 175.243,295.561 175.145 C 295.686 175.103,295.181 174.916,294.439 174.730 C 293.696 174.543,291.545 173.861,289.659 173.213 C 287.774 172.566,284.341 171.425,282.031 170.678 C 275.757 168.650,265.061 165.108,258.887 163.015 C 255.879 161.996,249.067 159.739,243.750 158.000 C 233.147 154.533,229.489 153.171,228.644 152.377 C 227.366 151.176,224.958 147.050,220.017 137.598 C 219.288 136.201,217.794 133.433,216.697 131.445 C 203.337 107.225,198.628 97.986,199.301 97.314 C 199.643 96.971,208.963 101.378,216.016 105.218 C 216.606 105.539,218.320 106.442,219.824 107.224 C 221.328 108.006,222.646 108.710,222.754 108.788 C 222.861 108.866,224.092 109.526,225.488 110.254 C 226.885 110.982,228.291 111.730,228.613 111.917 C 229.979 112.709,240.585 118.359,240.706 118.359 C 240.743 118.359,241.717 118.887,242.871 119.531 C 244.025 120.176,245.005 120.703,245.047 120.703 C 245.089 120.703,246.550 121.481,248.294 122.431 C 250.038 123.382,252.344 124.624,253.418 125.192 C 255.854 126.480,267.755 132.884,268.945 133.547 C 270.274 134.288,275.365 136.985,280.176 139.496 C 285.202 142.120,287.521 143.357,287.793 143.557 C 288.066 143.758,292.053 145.915,295.996 147.996 C 297.822 148.960,301.234 150.772,303.577 152.023 C 305.921 153.273,307.898 154.296,307.972 154.295 C 308.045 154.293,307.710 154.067,307.227 153.792 C 306.743 153.516,306.172 153.135,305.957 152.944 C 305.742 152.753,305.400 152.538,305.197 152.466 C 304.993 152.394,304.877 152.285,304.938 152.224 C 305.130 152.032,306.431 152.598,306.306 152.819 C 306.241 152.933,306.257 152.965,306.341 152.889 C 306.426 152.812,306.756 152.885,307.074 153.050 C 307.393 153.214,307.687 153.316,307.727 153.275 C 307.886 153.116,305.068 151.741,304.855 151.873 C 304.725 151.953,304.679 151.929,304.749 151.817 C 304.888 151.592,303.609 151.147,303.032 151.220 C 302.811 151.249,302.644 151.154,302.641 150.998 C 302.639 150.848,301.636 150.210,300.413 149.579 C 299.190 148.948,298.300 148.565,298.435 148.727 C 298.815 149.186,298.504 149.077,298.026 148.584 C 297.791 148.342,297.663 148.276,297.742 148.438 C 297.821 148.599,297.720 148.528,297.519 148.281 C 297.277 147.986,297.038 147.876,296.818 147.961 C 296.611 148.040,296.484 147.994,296.484 147.840 C 296.484 147.703,296.426 147.650,296.354 147.722 C 296.282 147.794,296.062 147.707,295.865 147.529 C 295.669 147.351,295.508 147.261,295.508 147.329 C 295.508 147.397,295.222 147.281,294.873 147.070 C 294.524 146.860,293.906 146.543,293.500 146.367 C 293.094 146.191,292.671 145.877,292.561 145.670 C 292.418 145.404,292.241 145.331,291.956 145.422 C 291.700 145.503,291.598 145.476,291.678 145.347 C 291.747 145.235,291.700 145.081,291.575 145.003 C 291.432 144.915,291.398 144.946,291.485 145.087 C 291.665 145.378,291.564 145.371,290.943 145.049 C 290.664 144.904,290.500 144.714,290.579 144.627 C 290.658 144.540,290.613 144.532,290.479 144.609 C 290.344 144.686,290.234 144.657,290.234 144.543 C 290.234 144.429,290.115 144.336,289.968 144.336 C 289.822 144.336,289.094 144.006,288.349 143.604 C 287.605 143.201,286.409 142.563,285.692 142.188 C 284.974 141.812,284.480 141.472,284.594 141.433 C 284.707 141.394,284.898 141.460,285.017 141.580 C 285.137 141.699,285.365 141.797,285.526 141.797 C 285.744 141.797,285.722 141.725,285.438 141.507 C 284.663 140.913,286.385 141.636,290.430 143.603 C 292.632 144.674,294.723 145.675,295.076 145.828 C 296.043 146.246,303.755 150.387,305.762 151.565 C 310.586 154.399,313.755 156.189,316.178 157.451 C 317.646 158.215,319.199 159.038,319.629 159.279 C 320.059 159.520,321.729 160.462,323.340 161.373 C 326.762 163.307,327.229 163.566,330.469 165.329 C 331.812 166.059,334.229 167.402,335.840 168.314 C 337.451 169.225,339.121 170.169,339.551 170.411 C 339.980 170.653,342.090 171.752,344.238 172.853 C 351.604 176.627,353.805 178.110,355.295 180.304 C 356.062 181.435,359.961 188.424,359.961 188.670 C 359.961 188.738,360.498 189.844,361.153 191.126 C 361.809 192.408,362.863 194.483,363.495 195.737 C 364.286 197.305,364.980 198.372,365.718 199.155 C 366.876 200.383,367.119 200.366,366.266 199.118 C 365.973 198.690,365.287 197.461,364.739 196.387 C 362.908 192.792,360.297 187.795,360.146 187.598 C 360.064 187.490,359.144 185.776,358.102 183.789 C 355.794 179.386,354.761 177.798,353.558 176.802 C 352.174 175.655,348.507 173.594,341.386 169.959 C 338.851 168.665,336.442 167.378,336.032 167.101 C 335.623 166.823,335.148 166.639,334.978 166.692 C 334.807 166.745,334.536 166.696,334.375 166.584 C 334.150 166.428,334.195 166.409,334.570 166.501 C 335.716 166.784,334.331 165.985,327.539 162.443 C 326.196 161.743,324.087 160.626,322.852 159.961 C 321.616 159.296,319.023 157.914,317.090 156.889 C 315.156 155.864,311.553 153.909,309.082 152.544 C 303.268 149.331,297.860 146.399,292.383 143.490 C 281.587 137.756,274.956 134.212,271.680 132.424 C 268.553 130.718,267.094 129.944,262.109 127.344 C 259.585 126.028,256.685 124.491,255.664 123.928 C 254.644 123.366,252.666 122.289,251.270 121.536 C 246.243 118.825,243.030 117.094,241.016 116.013 C 239.888 115.407,238.394 114.598,237.695 114.215 C 236.997 113.832,234.932 112.729,233.105 111.763 C 231.279 110.797,228.555 109.327,227.051 108.497 C 225.547 107.666,221.943 105.729,219.043 104.192 C 216.143 102.654,212.715 100.816,211.426 100.106 C 204.856 96.488,200.267 94.452,197.959 94.131 C 196.364 93.909,189.440 93.246,184.766 92.868 C 182.671 92.699,178.716 92.347,175.977 92.086 C 173.237 91.825,168.491 91.387,165.430 91.112 C 159.375 90.568,149.560 89.483,145.215 88.879 C 141.788 88.402,140.219 88.266,139.844 88.414 M142.998 91.978 C 148.510 92.912,155.618 93.697,168.848 94.831 C 170.781 94.996,174.561 95.389,177.246 95.703 C 179.932 96.017,183.359 96.368,184.863 96.483 C 194.725 97.239,195.251 97.538,198.424 104.199 C 198.680 104.736,199.387 106.055,199.995 107.129 C 200.604 108.203,201.391 109.653,201.746 110.352 C 205.377 117.505,207.053 120.715,208.629 123.535 C 211.201 128.134,218.317 141.360,220.505 145.605 C 222.866 150.186,223.854 151.846,225.317 153.697 C 225.991 154.550,226.578 155.508,226.653 155.880 C 226.727 156.245,226.830 156.697,226.883 156.885 C 227.068 157.542,226.657 157.210,226.283 156.400 C 226.076 155.951,225.873 155.683,225.832 155.804 C 225.792 155.926,225.952 156.406,226.190 156.870 C 226.477 157.433,226.610 158.020,226.588 158.629 C 226.571 159.132,226.651 159.602,226.766 159.673 C 227.006 159.821,226.889 161.158,226.425 163.574 C 226.260 164.434,226.113 165.151,226.099 165.169 C 226.086 165.187,226.074 163.684,226.074 161.829 L 226.074 158.456 224.721 156.425 C 223.976 155.308,222.168 152.109,220.702 149.316 C 215.847 140.065,213.436 135.502,210.820 130.614 C 209.397 127.955,208.131 125.472,208.007 125.096 C 207.883 124.721,207.481 123.864,207.113 123.193 C 206.745 122.522,204.521 118.139,202.172 113.454 C 194.162 97.481,195.436 98.764,186.857 98.038 C 184.257 97.818,180.151 97.383,177.734 97.071 C 175.317 96.759,171.890 96.408,170.117 96.291 C 166.886 96.077,150.735 94.474,148.535 94.148 C 147.891 94.052,146.704 93.918,145.898 93.849 C 145.093 93.780,143.687 93.598,142.773 93.444 C 141.860 93.291,140.828 93.165,140.479 93.165 C 139.950 93.164,139.844 93.091,139.847 92.725 C 139.848 92.483,139.914 92.373,139.993 92.480 C 140.181 92.736,140.952 92.839,141.083 92.627 C 141.290 92.292,140.843 91.860,140.628 92.188 C 140.472 92.425,140.435 92.398,140.433 92.041 C 140.429 91.511,140.273 91.515,142.998 91.978 M139.463 92.343 C 138.130 93.388,137.795 93.719,137.933 93.857 C 138.010 93.934,138.392 93.678,138.783 93.288 C 139.653 92.418,139.648 92.418,139.648 93.274 C 139.648 93.822,139.513 94.082,139.014 94.493 C 137.493 95.745,130.786 102.217,123.898 109.081 C 108.700 124.223,105.140 127.734,104.981 127.734 C 104.891 127.734,105.140 127.412,105.534 127.018 C 106.302 126.250,106.459 125.855,105.913 126.064 C 105.662 126.160,105.693 126.069,106.031 125.709 C 106.282 125.442,106.595 125.265,106.728 125.316 C 106.860 125.367,107.093 125.251,107.244 125.058 C 107.495 124.738,107.489 124.731,107.178 124.975 C 106.990 125.123,106.836 125.171,106.836 125.082 C 106.836 124.728,139.556 91.793,139.895 91.806 C 140.028 91.811,139.834 92.053,139.463 92.343 M144.336 95.495 C 146.001 95.711,149.517 96.111,152.148 96.384 C 154.780 96.658,158.823 97.098,161.133 97.364 C 163.442 97.629,167.178 97.979,169.434 98.141 C 173.482 98.432,175.313 98.625,181.250 99.388 C 182.915 99.601,185.728 99.873,187.500 99.991 C 193.674 100.403,193.224 100.104,196.027 105.664 C 196.812 107.222,197.791 109.111,198.202 109.863 C 198.613 110.615,199.331 111.934,199.797 112.793 C 200.702 114.460,203.448 119.343,205.288 122.559 C 206.032 123.858,206.331 124.554,206.182 124.638 C 205.491 125.025,192.680 128.734,192.118 128.710 C 192.102 128.709,192.058 126.490,192.019 123.778 C 191.980 121.066,191.883 117.310,191.803 115.430 C 191.686 112.687,191.655 113.671,191.646 120.410 L 191.633 128.809 190.885 129.040 C 190.473 129.167,188.247 129.769,185.938 130.378 C 183.628 130.987,179.761 132.045,177.344 132.730 C 173.337 133.864,170.654 134.560,170.257 134.567 C 170.172 134.569,170.209 134.374,170.337 134.134 C 170.572 133.695,170.439 116.450,170.142 108.887 L 170.020 105.762 169.883 107.910 C 169.808 109.092,169.752 115.594,169.757 122.360 L 169.768 134.662 169.127 134.924 C 168.775 135.068,166.898 135.609,164.956 136.127 C 163.014 136.645,158.877 137.776,155.762 138.640 C 152.646 139.504,144.692 141.673,138.086 143.459 C 125.482 146.866,121.961 147.825,116.504 149.334 C 114.678 149.840,111.953 150.579,110.449 150.979 C 108.945 151.378,106.660 152.019,105.371 152.404 C 104.082 152.788,102.104 153.334,100.977 153.617 C 96.805 154.663,92.773 155.959,92.773 156.253 C 92.773 156.344,92.488 156.616,92.139 156.857 L 91.504 157.296 91.907 156.822 C 92.526 156.095,92.867 155.454,93.148 154.492 C 93.289 154.009,94.189 151.257,95.148 148.376 C 96.107 145.496,97.273 141.629,97.740 139.783 C 98.663 136.128,98.881 135.463,99.229 135.248 C 99.536 135.058,99.781 135.491,99.657 136.008 C 99.588 136.293,99.621 136.364,99.758 136.230 C 100.123 135.877,100.272 134.375,99.941 134.375 C 99.765 134.375,99.602 134.103,99.522 133.677 C 99.413 133.097,99.343 133.019,99.110 133.213 C 98.516 133.705,98.867 133.178,99.710 132.310 C 100.442 131.558,100.642 131.444,100.882 131.643 C 101.210 131.916,101.272 132.422,100.977 132.422 C 100.869 132.422,100.781 132.624,100.781 132.871 C 100.781 133.118,100.672 133.448,100.538 133.604 C 100.404 133.759,100.752 133.454,101.310 132.926 C 101.869 132.398,102.280 131.890,102.223 131.798 C 102.166 131.706,102.200 131.655,102.298 131.685 C 102.521 131.752,117.666 117.043,129.492 105.274 C 138.649 96.161,140.388 94.594,140.980 94.921 C 141.161 95.021,142.671 95.280,144.336 95.495 M200.977 96.403 C 201.460 96.652,201.753 96.861,201.628 96.866 C 201.356 96.877,199.829 96.209,199.414 95.897 C 198.946 95.546,199.943 95.869,200.977 96.403 M203.902 97.787 C 204.173 97.929,204.292 98.045,204.167 98.046 C 203.876 98.047,202.148 97.311,202.148 97.185 C 202.148 97.067,203.242 97.443,203.902 97.787 M153.027 105.786 C 152.061 106.155,149.907 106.945,148.242 107.541 C 145.022 108.695,143.467 109.266,138.184 111.235 C 136.357 111.916,132.886 113.189,130.470 114.064 C 125.265 115.949,125.918 115.439,125.961 117.582 C 126.004 119.737,126.048 119.864,126.802 120.029 L 127.399 120.160 127.258 127.707 C 127.075 137.480,127.048 137.939,126.634 138.184 C 125.755 138.703,125.648 138.972,125.508 141.008 C 125.339 143.458,125.002 143.299,128.228 142.289 C 129.729 141.819,133.286 140.772,136.133 139.963 C 155.708 134.396,154.275 134.908,154.082 133.556 C 154.001 132.986,153.927 132.036,153.918 131.445 C 153.898 130.250,153.770 129.952,153.132 129.621 L 152.695 129.395 152.721 120.996 C 152.752 110.790,152.765 110.631,153.643 110.113 C 154.003 109.901,154.300 109.714,154.304 109.698 C 154.350 109.489,154.835 105.167,154.814 105.145 C 154.798 105.128,153.994 105.416,153.027 105.786 M180.795 105.796 C 180.560 106.630,180.565 131.032,180.800 131.268 C 181.268 131.737,181.308 130.280,181.169 117.986 C 181.032 105.914,181.006 105.046,180.795 105.796 M159.298 118.106 C 159.230 124.744,159.153 131.648,159.128 133.447 C 159.086 136.401,159.114 136.719,159.411 136.719 C 159.591 136.719,159.784 136.565,159.839 136.377 C 159.976 135.906,159.681 106.296,159.538 106.152 C 159.474 106.089,159.366 111.468,159.298 118.106 M149.367 121.516 L 149.316 131.118 146.777 131.977 C 145.381 132.450,142.612 133.305,140.625 133.878 C 135.885 135.243,130.465 136.852,130.006 137.028 C 129.675 137.156,129.650 137.089,129.743 136.309 C 129.800 135.836,129.948 131.890,130.073 127.539 C 130.198 123.188,130.337 119.444,130.381 119.219 C 130.466 118.787,132.668 117.894,141.602 114.671 C 143.696 113.916,146.157 112.990,147.070 112.614 C 147.983 112.238,148.885 111.927,149.074 111.923 C 149.398 111.915,149.415 112.460,149.367 121.516 M118.311 126.367 C 117.934 143.237,117.932 147.692,118.305 147.619 C 118.633 147.556,118.652 146.873,118.652 135.055 C 118.652 120.856,118.513 117.321,118.311 126.367 M103.690 124.902 C 103.237 125.386,102.782 125.781,102.680 125.781 C 102.459 125.781,104.128 124.037,104.356 124.029 C 104.443 124.026,104.143 124.419,103.690 124.902 M100.989 127.544 C 100.082 128.396,99.291 129.044,99.231 128.984 C 99.171 128.924,99.286 128.754,99.486 128.608 C 99.687 128.461,100.410 127.809,101.094 127.159 C 101.778 126.509,102.405 125.981,102.487 125.986 C 102.569 125.991,101.895 126.693,100.989 127.544 M262.609 128.998 C 262.818 129.155,263.146 129.287,263.338 129.291 C 263.699 129.297,264.682 130.078,264.329 130.078 C 264.067 130.078,261.719 128.937,261.719 128.810 C 261.719 128.609,262.241 128.719,262.609 128.998 M265.625 130.469 C 265.894 130.679,266.187 130.853,266.277 130.855 C 266.522 130.862,270.899 133.075,271.834 133.666 C 272.282 133.948,272.740 134.180,272.852 134.180 C 272.965 134.180,273.490 134.465,274.020 134.814 C 275.730 135.940,276.390 136.328,276.597 136.328 C 276.708 136.328,277.251 136.556,277.804 136.835 C 278.356 137.114,278.956 137.371,279.135 137.407 C 279.315 137.443,279.811 137.676,280.237 137.925 C 283.588 139.887,283.922 140.140,282.080 139.325 C 280.659 138.696,275.289 136.038,274.512 135.578 C 272.840 134.591,271.313 133.830,271.210 133.933 C 271.146 133.997,271.094 133.955,271.094 133.840 C 271.094 133.613,269.817 132.815,268.262 132.068 C 266.433 131.190,264.942 130.416,264.756 130.247 C 264.373 129.899,265.150 130.098,265.625 130.469 M204.128 133.253 C 205.651 135.962,209.785 143.392,210.402 144.531 C 212.526 148.446,213.086 149.359,214.688 151.516 L 215.596 152.739 215.544 157.570 L 215.491 162.402 208.771 162.341 C 202.664 162.284,196.054 162.046,186.133 161.524 C 175.955 160.989,171.656 161.288,162.402 163.176 C 160.576 163.549,157.368 164.113,155.273 164.430 C 153.179 164.747,149.751 165.318,147.656 165.699 C 145.562 166.080,143.188 166.507,142.383 166.649 L 140.918 166.906 140.981 167.680 C 141.066 168.715,140.849 168.686,144.092 168.093 C 145.676 167.804,150.532 166.960,154.883 166.219 C 159.233 165.478,164.507 164.567,166.602 164.194 C 172.121 163.214,171.819 163.240,171.945 163.721 C 172.003 163.947,172.018 164.753,171.977 165.513 C 171.936 166.273,171.846 187.812,171.775 213.378 C 171.705 238.945,171.627 259.883,171.602 259.908 C 171.539 259.971,158.378 258.625,156.934 258.407 C 156.289 258.310,153.477 257.993,150.684 257.703 C 147.891 257.413,143.804 256.940,141.602 256.653 L 137.598 256.131 137.548 236.358 L 137.498 216.586 135.790 216.643 L 134.082 216.699 134.109 217.317 C 134.143 218.102,133.945 218.158,131.127 218.161 L 128.953 218.164 128.978 202.246 C 128.992 193.491,129.021 186.328,129.042 186.328 C 129.176 186.328,133.233 190.463,133.652 191.026 L 134.168 191.721 133.991 196.690 C 133.765 203.066,133.578 217.375,133.727 216.992 C 133.789 216.831,134.053 216.523,134.313 216.309 L 134.787 215.918 134.905 205.138 L 135.023 194.359 135.989 194.366 C 137.396 194.377,137.359 194.526,137.198 189.427 L 137.053 184.869 135.909 183.678 C 134.321 182.023,134.468 181.402,136.518 181.107 C 137.791 180.924,137.995 180.562,136.976 180.296 C 136.214 180.098,129.443 178.711,129.234 178.711 C 129.171 178.711,129.137 177.945,129.159 177.009 L 129.199 175.307 128.511 175.191 C 127.753 175.064,125.362 173.586,124.640 172.798 L 124.182 172.298 124.412 167.936 C 124.686 162.760,124.990 160.330,124.864 164.320 C 124.804 166.219,124.848 167.102,125.010 167.297 C 125.155 167.472,125.233 168.267,125.221 169.440 C 125.210 170.595,125.309 171.613,125.481 172.114 C 125.635 172.559,125.719 172.990,125.668 173.073 C 125.584 173.208,125.959 173.486,126.465 173.662 C 126.572 173.700,126.636 173.804,126.606 173.894 C 126.576 173.984,126.730 174.104,126.948 174.161 C 127.165 174.218,127.344 174.332,127.344 174.414 C 127.344 175.102,128.953 174.730,129.290 173.964 C 130.283 171.710,131.020 170.255,132.133 168.353 C 132.829 167.162,133.618 165.796,133.885 165.317 C 134.152 164.838,135.147 163.151,136.096 161.569 C 139.173 156.438,139.982 155.044,142.249 150.977 C 145.064 145.926,143.427 146.753,157.945 143.048 C 164.479 141.381,174.219 138.868,179.590 137.464 C 194.631 133.532,201.995 131.678,202.637 131.659 C 203.173 131.643,203.300 131.779,204.128 133.253 M101.661 132.421 C 101.466 132.636,101.217 132.813,101.108 132.813 C 100.998 132.813,101.115 132.593,101.366 132.325 C 101.904 131.753,102.183 131.844,101.661 132.421 M106.749 141.877 C 106.797 144.016,106.836 146.806,106.836 148.078 C 106.836 149.514,106.911 150.391,107.034 150.391 C 107.255 150.391,107.105 142.765,106.825 139.746 C 106.705 138.453,106.685 139.017,106.749 141.877 M284.961 140.446 C 285.972 140.974,285.412 140.873,284.277 140.322 C 283.740 140.062,283.521 139.902,283.789 139.968 C 284.058 140.035,284.585 140.249,284.961 140.446 M194.336 145.117 C 194.927 145.429,195.498 145.685,195.605 145.685 C 195.713 145.685,195.317 145.429,194.727 145.117 C 194.136 144.805,193.564 144.550,193.457 144.550 C 193.350 144.550,193.745 144.805,194.336 145.117 M195.996 145.898 C 196.062 146.006,196.192 146.094,196.285 146.094 C 196.378 146.094,197.844 146.762,199.545 147.580 C 203.446 149.454,205.447 150.391,205.554 150.391 C 205.599 150.391,206.200 150.651,206.887 150.969 C 207.575 151.288,208.867 151.817,209.758 152.146 C 211.960 152.957,212.672 153.524,210.645 152.850 C 210.177 152.695,211.339 153.263,212.305 153.662 C 212.681 153.818,213.318 154.111,213.721 154.313 C 214.124 154.516,214.453 154.597,214.453 154.494 C 214.453 154.391,214.198 154.175,213.886 154.013 C 213.574 153.852,213.200 153.605,213.056 153.464 C 212.529 152.950,211.380 152.353,209.798 151.770 C 207.949 151.088,205.240 149.908,199.838 147.433 C 195.866 145.613,195.805 145.589,195.996 145.898 M177.930 147.894 C 182.245 149.857,187.976 152.564,191.699 154.395 C 199.418 158.192,206.284 161.523,206.391 161.523 C 207.059 161.523,203.424 159.355,200.421 157.963 C 199.491 157.531,196.665 156.211,194.141 155.029 C 185.566 151.013,177.542 147.438,177.195 147.477 C 177.115 147.486,177.446 147.674,177.930 147.894 M132.117 150.049 C 131.904 151.814,131.662 152.468,130.767 153.683 C 130.290 154.331,129.626 155.403,129.292 156.064 C 128.490 157.652,128.471 157.579,128.821 154.236 C 129.228 150.343,129.356 150.016,130.683 149.484 C 132.244 148.857,132.259 148.863,132.117 150.049 M302.347 150.943 C 302.217 150.986,301.965 150.874,301.787 150.692 C 301.485 150.384,301.501 150.379,302.024 150.613 C 302.332 150.751,302.477 150.900,302.347 150.943 M304.054 151.709 C 304.163 152.041,303.866 152.016,303.406 151.654 C 303.039 151.365,303.042 151.357,303.500 151.410 C 303.760 151.440,304.009 151.575,304.054 151.709 M121.274 154.553 C 121.266 155.647,121.156 157.263,121.030 158.142 L 120.801 159.741 120.215 158.758 C 119.893 158.218,119.081 156.927,118.411 155.890 C 116.812 153.413,116.828 153.379,119.936 152.657 C 121.335 152.331,121.291 152.269,121.274 154.553 M228.988 153.048 C 229.745 153.339,229.048 156.542,227.963 157.760 C 227.428 158.362,226.901 158.170,227.167 157.470 C 227.273 157.193,227.290 156.915,227.205 156.852 C 227.120 156.790,227.043 156.356,227.033 155.890 C 227.023 155.423,226.903 154.973,226.768 154.889 C 225.940 154.377,228.000 152.669,228.988 153.048 M308.203 153.578 C 308.203 153.625,309.719 154.523,311.572 155.572 C 315.431 157.758,315.376 157.728,315.200 157.533 C 314.872 157.167,308.203 153.398,308.203 153.578 M169.141 154.590 C 169.839 154.955,170.498 155.254,170.605 155.254 C 170.713 155.254,170.229 154.955,169.531 154.590 C 168.833 154.224,168.174 153.925,168.066 153.925 C 167.959 153.925,168.442 154.224,169.141 154.590 M171.484 155.693 C 171.860 155.923,173.750 156.852,175.684 157.757 C 180.605 160.062,180.894 160.187,181.011 160.070 C 181.068 160.013,180.596 159.737,179.962 159.457 C 177.863 158.530,177.078 158.167,174.042 156.713 C 170.925 155.221,170.316 154.979,171.484 155.693 M108.968 156.299 C 109.306 156.755,110.220 158.096,110.998 159.277 C 111.776 160.459,114.366 164.325,116.753 167.870 L 121.094 174.313 121.094 175.731 L 121.094 177.148 120.454 177.148 C 119.163 177.148,107.300 175.545,102.246 174.687 C 98.871 174.115,92.584 173.262,91.650 173.250 C 90.925 173.241,90.903 173.169,91.319 172.173 C 91.710 171.236,93.381 165.871,94.027 163.477 C 95.178 159.208,95.372 159.028,100.121 157.823 C 103.367 157.000,107.825 155.717,107.982 155.560 C 108.184 155.358,108.380 155.505,108.968 156.299 M225.506 156.807 C 225.449 156.899,225.524 157.139,225.671 157.341 C 225.919 157.679,225.932 157.666,225.838 157.174 C 225.729 156.606,225.670 156.541,225.506 156.807 M156.055 158.683 C 156.055 158.845,159.991 160.777,160.100 160.668 C 160.154 160.614,159.419 160.204,158.468 159.755 C 157.517 159.307,156.584 158.859,156.396 158.760 C 156.208 158.661,156.055 158.626,156.055 158.683 M92.773 160.317 C 92.773 160.702,91.973 163.281,91.854 163.281 C 91.756 163.281,91.916 162.216,92.113 161.558 C 92.167 161.378,92.026 161.538,91.799 161.914 C 91.408 162.562,91.393 162.570,91.500 162.052 C 91.563 161.751,91.547 161.400,91.467 161.270 C 91.100 160.683,91.192 160.328,91.646 160.571 C 92.069 160.797,92.070 160.808,91.695 160.954 C 91.364 161.084,91.385 161.107,91.846 161.119 C 92.591 161.138,92.544 160.614,91.772 160.299 L 91.162 160.050 91.968 160.050 C 92.519 160.050,92.773 160.134,92.773 160.317 M160.742 161.115 C 161.011 161.335,161.318 161.515,161.426 161.516 C 161.635 161.518,161.282 161.247,160.645 160.918 C 160.385 160.784,160.418 160.850,160.742 161.115 M90.591 162.061 C 90.482 162.463,90.317 162.873,90.223 162.972 C 90.064 163.139,90.366 161.796,90.560 161.475 C 90.763 161.137,90.776 161.375,90.591 162.061 M185.901 161.820 C 185.770 161.951,176.123 162.292,175.925 162.173 C 175.351 161.827,176.565 161.719,181.001 161.719 C 183.752 161.719,185.957 161.764,185.901 161.820 M257.813 163.605 C 258.397 163.834,258.415 163.857,257.932 163.762 C 257.621 163.701,257.094 163.525,256.760 163.370 C 256.012 163.025,256.758 163.191,257.813 163.605 M191.602 163.686 C 193.804 163.801,200.073 163.944,205.534 164.005 C 212.551 164.084,215.485 164.180,215.540 164.334 C 215.583 164.453,215.554 167.407,215.475 170.898 L 215.332 177.246 214.355 177.237 C 210.325 177.200,185.081 176.737,183.655 176.674 L 181.861 176.595 181.969 177.995 C 182.091 179.577,182.341 180.089,183.296 180.715 C 184.218 181.319,184.185 180.532,184.235 203.361 L 184.277 223.226 183.249 223.355 C 182.684 223.425,182.181 223.549,182.131 223.630 C 181.926 223.962,181.825 225.733,181.972 226.424 L 182.129 227.164 198.275 227.205 C 207.155 227.228,214.468 227.293,214.525 227.351 C 214.583 227.408,214.568 234.747,214.493 243.659 L 214.355 259.863 208.203 260.003 C 204.819 260.079,196.074 260.167,188.770 260.198 L 175.488 260.254 175.491 253.906 C 175.499 235.876,175.818 164.297,175.892 163.929 C 175.951 163.636,176.146 163.483,176.514 163.441 C 177.577 163.318,187.684 163.483,191.602 163.686 M259.375 164.063 C 259.635 164.231,259.635 164.252,259.375 164.252 C 259.214 164.252,258.950 164.167,258.789 164.063 C 258.529 163.894,258.529 163.873,258.789 163.873 C 258.950 163.873,259.214 163.958,259.375 164.063 M331.129 164.638 C 331.820 164.954,332.448 165.314,332.525 165.438 C 332.601 165.561,332.147 165.390,331.517 165.058 C 330.887 164.726,330.266 164.454,330.138 164.454 C 330.011 164.453,329.852 164.365,329.785 164.258 C 329.605 163.966,329.756 164.009,331.129 164.638 M125.728 166.158 C 125.686 166.563,125.651 166.279,125.650 165.527 C 125.649 164.775,125.684 164.444,125.727 164.791 C 125.770 165.137,125.771 165.753,125.728 166.158 M262.207 165.047 C 262.744 165.266,262.930 165.393,262.619 165.329 C 261.956 165.193,260.752 164.687,261.035 164.665 C 261.143 164.656,261.670 164.828,262.207 165.047 M241.113 166.787 C 244.121 167.555,248.032 168.611,249.805 169.134 C 251.577 169.657,254.741 170.540,256.836 171.097 C 258.931 171.653,261.528 172.362,262.609 172.670 C 266.563 173.800,267.218 173.847,273.828 173.475 C 279.683 173.145,283.789 173.407,283.789 174.110 C 283.789 174.614,272.242 174.937,268.950 174.524 C 267.855 174.387,267.717 174.404,267.921 174.649 C 268.281 175.083,268.220 254.883,267.859 254.883 C 267.361 254.883,261.409 255.673,260.501 255.859 C 259.992 255.964,256.960 256.446,253.762 256.931 C 250.565 257.416,246.895 257.996,245.605 258.221 C 241.956 258.856,234.692 259.771,234.545 259.614 C 234.392 259.449,234.212 194.619,234.316 176.917 L 234.386 164.868 235.016 165.129 C 235.361 165.273,238.105 166.019,241.113 166.787 M231.176 212.767 L 231.196 260.104 228.081 260.244 C 226.368 260.321,224.918 260.335,224.858 260.275 C 224.799 260.215,224.851 256.846,224.974 252.788 C 225.097 248.730,225.241 240.313,225.294 234.082 C 225.533 205.742,225.615 198.916,225.781 193.164 C 225.880 189.780,225.964 183.570,225.968 179.363 L 225.977 171.714 227.295 169.975 C 228.752 168.052,230.901 165.463,231.057 165.443 C 231.112 165.436,231.165 186.731,231.176 212.767 M264.063 165.625 C 264.323 165.793,264.323 165.814,264.063 165.814 C 263.901 165.814,263.638 165.729,263.477 165.625 C 263.216 165.457,263.216 165.436,263.477 165.436 C 263.638 165.436,263.901 165.521,264.063 165.625 M333.887 166.060 C 334.017 166.190,333.919 166.208,333.594 166.113 C 333.325 166.035,333.018 165.884,332.910 165.776 C 332.780 165.646,332.878 165.628,333.203 165.723 C 333.472 165.801,333.779 165.952,333.887 166.060 M126.385 171.777 C 126.427 172.671,126.515 172.835,127.424 173.711 C 128.113 174.374,128.238 174.558,127.832 174.309 C 126.238 173.334,126.134 173.121,126.063 170.682 C 125.996 168.414,126.271 169.348,126.385 171.777 M286.133 172.737 C 286.401 172.881,286.841 173.053,287.109 173.120 C 287.378 173.187,287.246 173.072,286.816 172.866 C 285.933 172.441,285.385 172.338,286.133 172.737 M288.184 173.513 C 288.506 173.660,288.989 173.834,289.258 173.900 C 289.650 173.996,289.631 173.967,289.160 173.753 C 288.838 173.606,288.354 173.432,288.086 173.366 C 287.694 173.270,287.713 173.299,288.184 173.513 M91.282 174.480 C 90.931 176.497,90.558 176.958,89.293 176.939 C 88.790 176.932,88.514 176.866,88.678 176.793 C 89.398 176.474,89.857 175.989,90.114 175.277 C 90.780 173.431,90.810 173.381,91.108 173.629 C 91.295 173.783,91.353 174.071,91.282 174.480 M289.844 174.085 C 289.844 174.242,291.807 174.859,291.927 174.740 C 291.984 174.682,291.666 174.537,291.218 174.416 C 290.771 174.296,290.279 174.149,290.125 174.089 C 289.970 174.030,289.844 174.028,289.844 174.085 M85.664 176.497 C 85.496 176.989,85.406 177.469,85.464 177.563 C 85.522 177.657,85.467 177.734,85.340 177.734 C 85.200 177.734,85.153 177.563,85.219 177.295 C 85.279 177.053,85.438 176.416,85.571 175.879 C 85.709 175.328,85.848 175.055,85.892 175.252 C 85.934 175.444,85.832 176.004,85.664 176.497 M99.683 175.399 C 100.246 175.918,97.869 178.906,96.892 178.906 L 96.278 178.906 96.391 177.588 C 96.453 176.863,96.549 175.979,96.603 175.624 L 96.701 174.978 98.107 175.110 C 98.879 175.183,99.589 175.313,99.683 175.399 M350.684 175.876 C 352.404 176.973,352.217 177.033,350.443 175.953 C 348.954 175.047,348.888 174.999,349.137 175.002 C 349.236 175.003,349.932 175.397,350.684 175.876 M293.443 176.674 C 293.962 177.193,293.795 179.492,293.239 179.492 C 293.031 179.492,292.969 179.130,292.969 177.930 C 292.969 176.246,292.981 176.212,293.443 176.674 M301.367 176.674 C 301.958 176.820,302.837 176.983,303.320 177.038 C 303.804 177.093,303.452 176.969,302.539 176.762 C 300.671 176.338,299.706 176.266,301.367 176.674 M298.633 177.923 C 298.633 179.446,296.800 179.622,296.720 178.107 L 296.662 177.014 297.647 177.316 C 298.279 177.510,298.633 177.728,298.633 177.923 M304.298 177.203 C 304.531 177.463,315.542 179.250,315.733 179.059 C 315.791 179.001,315.329 178.892,314.706 178.817 C 314.084 178.742,311.772 178.375,309.570 178.002 C 307.368 177.629,305.259 177.272,304.883 177.209 C 304.507 177.145,304.244 177.143,304.298 177.203 M165.625 177.677 C 165.249 177.719,163.315 177.966,161.328 178.227 C 159.341 178.488,155.737 178.927,153.320 179.203 C 150.903 179.479,147.238 179.965,145.175 180.282 C 143.112 180.600,141.375 180.859,141.316 180.859 C 141.108 180.859,141.454 183.107,141.692 183.301 C 142.146 183.671,142.311 223.791,141.860 223.976 C 141.448 224.144,141.363 224.373,141.256 225.604 L 141.177 226.501 148.079 226.629 C 151.875 226.700,157.670 226.815,160.956 226.885 C 165.426 226.980,166.968 226.955,167.074 226.784 C 167.301 226.416,166.969 224.391,166.625 224.047 C 166.090 223.512,166.268 182.057,166.809 181.000 C 167.017 180.594,167.188 180.126,167.188 179.960 C 167.188 179.795,167.414 179.273,167.691 178.800 C 168.426 177.547,168.151 177.397,165.625 177.677 M271.970 178.555 C 272.347 178.555,272.656 178.643,272.656 178.751 C 272.656 178.992,269.185 178.756,268.750 178.486 C 268.563 178.370,268.969 178.350,269.870 178.429 C 270.647 178.498,271.592 178.555,271.970 178.555 M238.032 179.634 C 238.115 179.932,238.171 190.789,238.155 203.760 L 238.126 227.344 241.394 227.344 C 243.192 227.344,247.719 227.285,251.454 227.214 L 258.245 227.084 258.124 225.896 C 257.476 219.555,257.387 184.870,258.020 185.261 C 258.347 185.463,258.855 184.162,258.562 183.873 C 258.301 183.615,253.383 182.432,249.316 181.649 C 248.135 181.421,245.278 180.797,242.969 180.260 C 240.659 179.724,238.570 179.242,238.325 179.189 C 237.921 179.100,237.895 179.141,238.032 179.634 M316.895 179.306 C 317.432 179.390,318.267 179.453,318.750 179.448 L 319.629 179.437 318.555 179.289 C 317.964 179.207,317.129 179.143,316.699 179.147 C 315.945 179.154,315.951 179.159,316.895 179.306 M320.703 179.686 C 321.814 179.850,324.346 179.939,324.202 179.809 C 324.158 179.769,323.110 179.689,321.875 179.632 C 320.352 179.561,319.975 179.579,320.703 179.686 M325.142 180.024 C 325.489 180.067,326.104 180.068,326.509 180.025 C 326.915 179.983,326.631 179.948,325.879 179.947 C 325.127 179.946,324.795 179.981,325.142 180.024 M120.851 194.375 C 120.897 206.966,120.846 209.222,120.382 215.253 L 120.283 216.542 108.749 216.683 C 100.327 216.786,97.156 216.765,96.996 216.606 C 96.756 216.366,96.491 188.710,96.690 184.570 L 96.797 182.324 96.836 185.218 L 96.875 188.112 97.314 187.978 C 97.556 187.904,97.870 187.781,98.011 187.705 C 98.318 187.541,104.310 181.599,104.590 181.181 C 104.762 180.924,105.039 180.933,106.934 181.254 C 110.858 181.919,119.261 183.203,119.693 183.203 C 120.089 183.203,120.117 183.110,120.117 181.822 C 120.117 180.611,120.159 180.448,120.459 180.506 C 120.780 180.568,120.804 181.407,120.851 194.375 M215.089 181.222 C 215.328 181.461,215.275 187.929,214.938 199.609 C 214.782 205.034,214.653 212.605,214.651 216.434 C 214.649 222.793,214.620 223.407,214.318 223.523 C 213.943 223.666,191.872 223.482,189.697 223.316 L 188.280 223.209 188.361 212.630 C 188.406 206.811,188.450 197.268,188.460 191.423 L 188.477 180.795 201.696 180.922 C 208.967 180.992,214.994 181.127,215.089 181.222 M162.973 182.122 C 162.786 182.864,162.773 211.505,162.956 217.826 L 163.118 223.445 154.309 223.434 C 149.464 223.427,145.392 223.381,145.260 223.330 C 144.878 223.184,144.948 184.192,145.330 183.980 C 145.580 183.842,150.245 183.188,157.227 182.313 C 158.677 182.131,160.347 181.917,160.938 181.837 C 162.977 181.561,163.109 181.580,162.973 182.122 M220.028 210.107 C 219.946 224.905,219.822 238.374,219.752 240.039 C 219.545 244.963,219.404 221.415,219.560 207.813 C 219.721 193.747,219.944 183.203,220.081 183.203 C 220.134 183.203,220.110 195.310,220.028 210.107 M248.242 184.874 C 251.948 185.603,255.043 186.251,255.119 186.314 C 255.195 186.378,255.283 194.902,255.314 205.257 L 255.371 224.085 248.535 223.949 C 244.775 223.874,241.497 223.794,241.249 223.772 L 240.799 223.730 240.808 211.133 C 240.821 194.340,241.012 183.362,241.291 183.467 C 241.408 183.512,244.536 184.145,248.242 184.874 M260.462 195.801 C 260.260 197.461,260.493 225.635,260.722 227.148 C 260.975 228.825,261.042 225.239,260.991 212.695 C 260.940 200.173,260.733 193.575,260.462 195.801 M325.145 205.257 C 324.872 221.933,325.078 250.877,325.439 246.680 C 325.931 240.967,325.926 210.466,325.431 199.512 C 325.308 196.784,325.272 197.516,325.145 205.257 M125.021 214.697 C 125.081 228.741,124.986 239.784,124.799 240.402 C 124.609 241.029,124.559 214.687,124.739 208.740 C 124.809 206.404,124.892 204.492,124.922 204.492 C 124.953 204.492,124.997 209.084,125.021 214.697 M283.086 206.396 C 282.782 207.052,282.874 226.794,283.182 226.912 C 283.332 226.969,283.991 227.024,284.647 227.034 L 285.840 227.051 285.890 217.058 C 285.922 210.847,285.868 206.875,285.749 206.560 C 285.502 205.912,283.372 205.781,283.086 206.396 M132.894 222.826 C 132.999 222.996,132.582 225.437,132.212 226.812 C 131.963 227.736,129.384 233.126,129.109 233.296 C 128.869 233.445,128.854 229.915,129.085 227.283 C 129.274 225.116,130.206 223.571,131.662 223.009 C 132.677 222.617,132.758 222.605,132.894 222.826 M120.327 231.592 C 120.335 236.399,120.410 244.111,120.493 248.730 C 120.576 253.350,120.636 257.142,120.625 257.159 C 120.593 257.209,109.824 255.922,107.520 255.593 C 106.338 255.424,104.097 255.140,102.539 254.962 C 100.981 254.784,98.462 254.495,96.940 254.321 C 95.418 254.146,94.100 253.927,94.010 253.832 C 93.918 253.735,94.122 253.699,94.482 253.750 L 95.117 253.839 95.072 238.492 C 95.041 227.807,94.997 225.102,94.926 229.590 C 94.811 236.881,94.618 236.305,94.425 228.092 L 94.307 223.078 94.761 222.991 C 95.011 222.944,100.862 222.893,107.764 222.878 L 120.313 222.852 120.327 231.592 M312.569 224.369 L 313.907 224.512 313.878 237.883 C 313.862 245.238,313.831 251.274,313.808 251.296 C 313.707 251.397,309.563 252.169,306.533 252.652 C 304.712 252.942,301.605 253.460,299.627 253.802 L 296.032 254.425 296.161 245.523 C 296.233 240.627,296.348 233.765,296.418 230.273 L 296.544 223.926 303.887 224.076 C 307.926 224.158,311.833 224.290,312.569 224.369 M107.398 234.766 C 107.331 238.579,107.331 243.940,107.398 246.680 L 107.520 251.660 107.636 246.484 C 107.700 243.638,107.700 238.276,107.636 234.570 L 107.520 227.832 107.398 234.766 M362.079 228.532 C 362.062 228.899,362.065 229.419,362.085 229.688 C 362.111 230.039,362.071 230.101,361.943 229.909 C 361.745 229.611,361.446 242.251,361.555 246.331 L 361.621 248.814 360.938 249.113 C 360.562 249.278,358.892 249.770,357.227 250.205 C 355.562 250.640,353.101 251.297,351.758 251.663 C 350.415 252.030,346.328 253.072,342.676 253.980 C 336.124 255.608,332.385 256.575,325.879 258.324 C 320.031 259.896,313.703 261.493,308.887 262.612 C 306.309 263.212,302.266 264.170,299.902 264.741 C 295.146 265.891,289.785 267.109,280.957 269.047 C 277.734 269.755,273.340 270.723,271.191 271.199 C 269.043 271.675,265.703 272.413,263.770 272.841 C 261.836 273.268,258.320 274.065,255.957 274.613 C 253.594 275.160,249.942 275.992,247.843 276.462 C 245.744 276.931,243.327 277.493,242.472 277.711 C 241.617 277.929,239.688 278.371,238.184 278.693 C 236.680 279.015,233.999 279.624,232.227 280.047 C 219.061 283.187,218.320 283.269,212.598 282.225 C 208.500 281.478,196.649 279.533,189.453 278.427 C 180.694 277.081,178.513 276.737,172.656 275.780 C 169.380 275.244,165.337 274.594,163.672 274.336 C 160.499 273.843,154.537 272.850,145.996 271.391 C 143.203 270.914,139.336 270.296,137.402 270.018 C 135.469 269.740,132.568 269.304,130.957 269.048 C 129.346 268.792,126.709 268.397,125.098 268.170 C 123.486 267.943,119.531 267.327,116.309 266.802 C 107.065 265.293,100.791 264.320,96.777 263.771 C 93.317 263.298,89.226 262.616,88.420 262.377 C 88.179 262.306,88.107 262.157,88.188 261.900 C 88.274 261.630,88.230 261.555,88.031 261.632 C 87.740 261.744,87.626 262.755,87.608 265.412 L 87.598 266.859 94.922 268.078 C 98.950 268.749,104.443 269.699,107.129 270.190 C 109.814 270.681,114.341 271.477,117.188 271.958 C 123.214 272.976,132.343 274.583,144.434 276.754 C 156.699 278.957,159.293 279.415,164.453 280.290 C 172.081 281.584,180.953 283.139,190.039 284.774 C 192.993 285.306,197.651 286.135,200.391 286.617 C 203.130 287.099,207.524 287.895,210.156 288.386 C 212.788 288.877,215.871 289.330,217.007 289.392 L 219.072 289.505 223.843 288.191 C 226.467 287.468,229.976 286.496,231.641 286.032 C 240.381 283.595,243.146 282.835,250.488 280.852 C 254.893 279.662,262.100 277.687,266.504 276.463 C 270.908 275.239,276.489 273.699,278.906 273.040 C 292.364 269.375,299.646 267.343,301.758 266.666 C 302.563 266.408,304.585 265.844,306.250 265.412 C 309.629 264.537,314.522 263.206,318.066 262.199 C 319.355 261.832,321.904 261.142,323.730 260.665 C 325.557 260.187,328.325 259.449,329.883 259.023 C 331.440 258.598,334.385 257.795,336.426 257.240 C 338.467 256.684,341.191 255.928,342.480 255.560 C 343.770 255.192,345.967 254.593,347.363 254.228 C 350.551 253.395,353.947 252.426,358.670 251.001 L 362.360 249.888 362.319 238.961 C 362.297 232.951,362.241 227.996,362.194 227.949 C 362.147 227.903,362.096 228.165,362.079 228.532 M133.551 231.592 C 133.421 235.472,132.816 237.387,130.768 240.394 C 129.995 241.530,129.282 242.486,129.183 242.519 C 128.891 242.616,129.185 239.033,129.523 238.379 C 129.690 238.057,129.933 237.354,130.064 236.816 C 130.196 236.279,130.548 235.269,130.848 234.570 C 131.148 233.872,131.818 232.268,132.336 231.006 C 133.559 228.032,133.668 228.084,133.551 231.592 M184.844 235.400 C 184.889 238.972,184.945 245.146,184.968 249.121 C 184.995 253.797,185.065 255.900,185.164 255.078 C 185.358 253.482,185.746 238.812,185.744 233.154 L 185.742 228.906 185.252 228.906 L 184.762 228.906 184.844 235.400 M240.985 230.022 C 240.913 231.215,241.111 241.391,241.376 250.195 L 241.538 255.566 241.619 247.266 C 241.721 236.707,241.731 229.685,241.644 229.248 C 241.479 228.427,241.050 228.931,240.985 230.022 M198.242 229.240 C 198.242 229.362,198.067 229.410,197.838 229.350 C 197.474 229.255,197.444 229.311,197.537 229.905 C 197.594 230.269,197.697 235.400,197.767 241.309 C 197.904 252.954,198.170 256.969,198.239 248.438 C 198.262 245.591,198.343 240.142,198.419 236.328 C 198.494 232.515,198.486 229.311,198.399 229.209 C 198.303 229.095,198.242 229.107,198.242 229.240 M145.249 229.425 C 145.178 229.496,145.213 229.665,145.326 229.801 C 145.458 229.960,145.534 231.953,145.538 235.386 C 145.542 238.321,145.609 242.656,145.688 245.020 L 145.830 249.316 145.882 243.945 C 145.911 240.991,145.997 236.509,146.074 233.984 C 146.228 228.939,146.241 229.129,145.768 229.513 C 145.546 229.693,145.482 229.703,145.580 229.541 C 145.731 229.288,145.476 229.199,145.249 229.425 M165.340 236.865 C 165.643 254.109,165.713 254.721,165.895 241.669 C 166.062 229.698,166.049 229.297,165.502 229.297 C 165.242 229.297,165.223 230.188,165.340 236.865 M251.846 239.384 C 252.065 253.925,252.268 255.418,252.339 243.018 C 252.373 237.297,252.409 231.893,252.420 231.009 C 252.439 229.570,252.402 229.392,252.067 229.328 C 251.701 229.257,251.697 229.468,251.846 239.384 M154.913 239.990 C 154.947 251.506,155.129 250.571,155.361 237.695 C 155.436 233.560,155.541 230.022,155.594 229.834 C 155.663 229.588,155.578 229.492,155.287 229.492 C 154.883 229.492,154.883 229.499,154.913 239.990 M113.995 233.625 C 113.837 237.293,113.872 247.176,114.054 250.195 C 114.135 251.533,114.204 248.037,114.224 241.553 C 114.243 235.564,114.228 230.664,114.191 230.664 C 114.154 230.664,114.066 231.996,113.995 233.625 M100.869 240.234 C 100.869 243.833,100.895 245.305,100.927 243.506 C 100.960 241.707,100.960 238.762,100.927 236.963 C 100.895 235.164,100.869 236.636,100.869 240.234 M133.623 243.451 C 133.327 245.349,130.549 249.414,129.547 249.414 C 128.913 249.414,129.259 247.244,130.130 245.753 C 130.585 244.975,131.572 243.236,132.324 241.887 L 133.691 239.436 133.750 240.850 C 133.782 241.628,133.725 242.798,133.623 243.451 M260.991 242.188 C 260.991 242.671,261.029 242.869,261.075 242.627 C 261.122 242.385,261.122 241.990,261.075 241.748 C 261.029 241.506,260.991 241.704,260.991 242.188 M219.474 246.336 C 219.427 246.579,219.387 246.426,219.385 245.996 C 219.383 245.566,219.421 245.368,219.470 245.554 C 219.519 245.741,219.521 246.093,219.474 246.336 M133.750 249.072 C 133.685 250.202,133.038 250.539,132.000 249.983 C 131.568 249.752,131.576 249.734,132.528 248.902 C 133.758 247.826,133.822 247.834,133.750 249.072 M325.251 250.293 C 325.253 250.830,325.291 251.027,325.335 250.730 C 325.380 250.433,325.379 249.993,325.333 249.753 C 325.286 249.513,325.250 249.756,325.251 250.293 M360.449 253.523 C 359.805 253.731,357.871 254.259,356.152 254.697 C 354.434 255.136,352.192 255.746,351.172 256.053 C 350.151 256.361,348.306 256.877,347.070 257.200 C 342.698 258.346,333.177 260.992,327.637 262.602 C 322.038 264.229,319.024 265.084,315.625 266.008 C 313.745 266.520,309.087 267.793,305.273 268.837 C 301.460 269.882,296.143 271.338,293.457 272.073 C 290.771 272.808,286.948 273.862,284.961 274.415 C 277.816 276.403,273.471 277.603,269.727 278.621 C 267.632 279.191,264.160 280.150,262.012 280.753 C 259.863 281.355,256.787 282.203,255.176 282.637 C 251.403 283.652,247.808 284.648,241.504 286.424 C 238.711 287.211,235.107 288.220,233.496 288.667 C 231.885 289.113,227.930 290.236,224.707 291.162 C 217.467 293.244,215.717 293.192,203.091 290.518 C 201.328 290.145,195.078 289.043,185.938 287.494 C 182.124 286.847,178.872 286.279,178.711 286.231 C 178.550 286.182,176.792 285.873,174.805 285.544 C 172.817 285.215,168.862 284.518,166.016 283.994 C 163.169 283.470,159.038 282.718,156.836 282.323 C 154.634 281.927,150.459 281.173,147.559 280.648 C 144.658 280.122,140.439 279.381,138.184 279.001 C 135.928 278.621,132.368 278.008,130.273 277.638 C 128.179 277.268,124.845 276.694,122.864 276.363 C 120.884 276.032,118.656 275.633,117.912 275.476 C 117.169 275.320,114.966 274.928,113.017 274.604 C 111.068 274.281,108.110 273.758,106.445 273.442 C 104.780 273.127,101.528 272.549,99.219 272.159 C 95.669 271.560,89.441 270.362,87.956 269.993 C 87.536 269.889,87.533 269.909,87.510 273.110 L 87.487 276.332 88.128 276.540 C 88.857 276.775,93.296 277.596,99.316 278.609 C 101.572 278.989,105.352 279.686,107.715 280.158 C 110.078 280.630,114.912 281.560,118.457 282.225 C 122.002 282.890,127.407 283.904,130.469 284.479 C 141.570 286.564,143.697 286.959,146.289 287.421 C 147.739 287.679,150.903 288.278,153.320 288.753 C 155.737 289.228,158.506 289.755,159.473 289.925 C 160.439 290.095,162.417 290.451,163.867 290.717 C 165.317 290.982,167.954 291.424,169.727 291.698 C 172.752 292.166,175.937 292.758,188.086 295.114 C 217.428 300.803,217.383 300.799,227.805 298.045 C 230.261 297.396,232.416 296.788,232.593 296.693 C 232.956 296.498,239.364 294.641,245.117 293.063 C 247.212 292.488,250.640 291.518,252.734 290.907 C 254.829 290.295,257.554 289.511,258.789 289.163 C 260.024 288.816,262.222 288.173,263.672 287.735 C 267.066 286.709,272.621 285.154,275.977 284.289 C 277.427 283.915,280.415 283.089,282.617 282.452 C 292.085 279.714,297.049 278.299,301.172 277.161 C 309.325 274.911,315.898 273.028,319.629 271.874 C 322.861 270.874,327.568 269.494,335.938 267.092 C 337.173 266.738,340.293 265.821,342.871 265.055 C 347.787 263.594,353.627 262.056,358.887 260.837 C 362.616 259.973,362.266 260.427,362.296 256.412 C 362.323 252.652,362.465 252.874,360.449 253.523 M133.887 254.004 C 133.994 254.041,133.362 254.078,132.482 254.086 C 131.602 254.095,130.836 254.027,130.780 253.936 C 130.687 253.786,133.426 253.845,133.887 254.004 M136.426 254.102 C 136.583 254.356,134.964 254.356,134.570 254.102 C 134.360 253.966,134.565 253.911,135.291 253.909 C 135.849 253.908,136.359 253.994,136.426 254.102 M178.597 260.922 C 180.584 260.940,180.694 261.085,178.881 261.297 C 178.083 261.391,180.682 261.495,186.133 261.588 C 196.285 261.762,200.781 261.746,200.781 261.537 C 200.781 261.304,204.597 261.089,212.051 260.903 C 214.245 260.847,214.191 260.833,214.288 261.523 L 214.355 262.012 209.473 262.076 C 205.367 262.130,177.686 261.761,176.172 261.632 C 175.360 261.563,175.401 260.831,176.214 260.874 C 176.567 260.892,177.639 260.914,178.597 260.922 " stroke="none" fill="#FFFFFF" fill-rule="evenodd"></path></g></svg>