<svg id="svg" version="1.1" xmlns="http://www.w3.org/2000/svg" xmlns:xlink="http://www.w3.org/1999/xlink" width="400" height="400" viewBox="0, 0, 400,400"><g id="svgg"><path id="path0" d="M95.600 68.457 C 94.830 69.130,92.850 70.697,91.200 71.940 C 88.793 73.752,84.069 77.584,74.033 85.863 C 73.196 86.554,79.430 86.294,100.000 84.780 C 111.986 83.897,116.736 83.612,119.500 83.606 C 122.779 83.599,123.258 83.066,121.100 81.825 C 120.385 81.414,117.910 79.866,115.600 78.386 C 96.539 66.168,97.609 66.700,95.600 68.457 M290.800 72.173 C 288.270 73.331,283.410 75.497,280.000 76.986 C 276.590 78.476,270.650 81.090,266.800 82.796 C 262.950 84.502,257.820 86.760,255.400 87.814 C 237.428 95.637,238.396 95.051,238.703 97.908 C 238.964 100.332,238.876 100.282,241.101 99.284 C 242.146 98.815,246.510 96.968,250.800 95.178 C 255.090 93.389,259.590 91.501,260.800 90.984 C 262.010 90.467,265.835 88.863,269.300 87.422 C 294.305 77.016,292.660 77.705,294.900 76.708 L 296.800 75.863 298.700 76.709 C 300.671 77.587,318.943 84.844,325.600 87.393 C 327.690 88.193,331.110 89.537,333.200 90.379 C 335.290 91.221,340.870 93.387,345.600 95.193 C 350.330 96.999,357.530 99.792,361.600 101.398 C 385.078 110.667,382.400 109.936,382.400 107.076 L 382.400 104.864 380.425 104.208 C 378.291 103.500,367.380 99.166,352.400 93.077 C 347.230 90.975,338.590 87.463,333.200 85.272 C 327.810 83.081,319.575 79.739,314.899 77.845 C 310.223 75.952,305.633 74.056,304.699 73.632 C 295.092 69.274,296.755 69.448,290.800 72.173 M122.000 83.831 C 121.155 84.025,108.218 85.059,95.000 85.990 C 88.840 86.423,82.900 86.873,81.800 86.989 C 80.700 87.106,78.134 87.230,76.097 87.267 L 72.394 87.333 67.122 91.766 C 64.222 94.205,60.810 97.100,59.540 98.200 L 57.231 100.200 57.029 141.242 L 56.827 182.284 64.649 182.642 C 68.950 182.839,72.544 182.925,72.635 182.833 C 72.726 182.742,72.800 180.559,72.800 177.982 L 72.800 173.297 65.397 173.005 C 61.196 172.839,57.886 172.539,57.745 172.311 C 57.582 172.048,58.448 171.989,60.248 172.143 C 61.762 172.272,65.160 172.427,67.800 172.489 L 72.600 172.600 72.712 167.431 C 72.850 161.112,73.540 161.614,64.700 161.606 C 59.667 161.602,57.600 161.468,57.600 161.145 C 57.600 160.816,59.674 160.733,65.100 160.845 L 72.600 161.000 72.600 155.400 L 72.600 149.800 65.083 149.749 C 60.948 149.722,57.453 149.587,57.316 149.449 C 57.071 149.205,60.651 149.069,68.600 149.023 L 72.600 149.000 72.600 143.250 L 72.600 137.500 65.000 137.572 C 59.778 137.622,57.528 137.515,57.810 137.232 C 58.053 136.988,61.153 136.774,65.410 136.710 L 72.600 136.600 72.600 131.000 L 72.600 125.400 65.100 125.550 C 60.417 125.643,57.600 125.554,57.600 125.312 C 57.600 124.938,65.046 124.405,70.311 124.402 L 72.822 124.400 72.711 118.700 L 72.600 113.000 65.200 113.145 C 59.882 113.249,57.915 113.167,58.210 112.855 C 58.467 112.582,61.236 112.379,65.610 112.310 L 72.600 112.200 72.620 110.800 L 72.639 109.400 77.620 109.133 C 87.802 108.587,102.909 108.000,106.791 108.000 L 110.800 108.000 110.800 109.000 C 110.800 110.231,110.354 110.221,128.200 109.402 C 143.448 108.702,148.400 108.652,148.400 109.200 C 148.400 109.424,147.298 109.601,145.900 109.603 C 143.273 109.606,122.384 110.268,115.200 110.576 L 111.000 110.756 111.000 122.878 L 111.000 135.000 112.600 134.975 C 113.480 134.961,121.940 134.826,131.400 134.675 C 141.253 134.517,148.258 134.549,147.800 134.749 C 147.124 135.043,120.274 136.014,113.090 136.003 L 110.779 136.000 110.890 142.030 L 111.000 148.060 120.000 148.019 C 124.950 147.997,133.365 147.880,138.700 147.759 C 145.489 147.606,148.400 147.669,148.400 147.970 C 148.400 148.257,146.177 148.419,141.700 148.457 C 138.015 148.488,129.600 148.623,123.000 148.757 L 111.000 149.000 110.890 155.100 L 110.779 161.200 122.090 161.201 C 134.682 161.202,148.400 161.600,148.400 161.963 C 148.400 162.093,139.935 162.141,129.589 162.069 L 110.778 161.938 110.889 167.869 L 111.000 173.800 129.311 174.045 C 139.382 174.179,147.752 174.428,147.911 174.597 C 148.070 174.767,139.830 174.837,129.600 174.753 L 111.000 174.600 111.000 179.600 L 111.000 184.600 114.000 184.854 C 116.762 185.088,132.729 185.777,144.200 186.157 L 149.000 186.315 148.896 143.558 C 148.816 110.509,148.902 100.800,149.273 100.800 C 149.537 100.800,148.774 100.206,147.576 99.481 C 146.379 98.755,144.648 97.660,143.729 97.047 L 142.058 95.932 132.129 96.568 C 108.884 98.055,97.518 98.816,93.200 99.175 C 90.670 99.385,86.620 99.668,84.200 99.804 C 81.780 99.940,76.380 100.309,72.200 100.625 C 63.261 101.301,57.600 101.369,57.600 100.800 C 57.600 100.564,59.037 100.398,61.100 100.394 C 63.025 100.391,68.380 100.119,73.000 99.791 C 82.619 99.107,108.207 97.359,116.800 96.798 C 119.990 96.590,126.560 96.216,131.400 95.968 C 136.240 95.719,140.340 95.386,140.512 95.226 C 140.896 94.869,124.013 83.582,123.191 83.646 C 122.866 83.672,122.330 83.755,122.000 83.831 M233.200 95.887 C 232.430 95.967,228.206 96.160,223.814 96.316 L 215.829 96.600 218.926 98.700 C 222.408 101.061,222.054 101.005,230.726 100.539 L 235.578 100.278 235.421 98.050 C 235.251 95.646,235.277 95.671,233.200 95.887 M152.990 134.000 C 152.990 150.830,153.040 157.715,153.100 149.300 C 153.160 140.885,153.160 127.115,153.100 118.700 C 153.040 110.285,152.990 117.170,152.990 134.000 M236.992 141.400 C 236.992 161.200,237.040 169.241,237.100 159.270 C 237.159 149.298,237.159 133.098,237.100 123.270 C 237.040 113.441,236.992 121.600,236.992 141.400 M157.200 109.800 L 157.200 112.400 158.457 112.400 C 160.194 112.400,178.883 114.433,198.800 116.789 C 217.346 118.982,215.367 119.059,215.127 116.151 L 215.000 114.618 209.200 113.941 C 202.442 113.152,188.782 111.367,176.000 109.601 C 167.331 108.403,158.123 107.210,157.500 107.203 C 157.335 107.201,157.200 108.370,157.200 109.800 M250.174 118.600 C 250.175 124.320,250.231 126.604,250.299 123.676 C 250.368 120.748,250.367 116.068,250.299 113.276 C 250.230 110.484,250.174 112.880,250.174 118.600 M97.305 111.487 C 97.914 111.579,98.814 111.577,99.305 111.482 C 99.797 111.387,99.300 111.311,98.200 111.314 C 97.100 111.317,96.697 111.395,97.305 111.487 M361.900 111.482 C 362.395 111.578,363.205 111.578,363.700 111.482 C 364.195 111.387,363.790 111.309,362.800 111.309 C 361.810 111.309,361.405 111.387,361.900 111.482 M377.350 115.800 C 377.351 118.220,377.416 119.158,377.496 117.885 C 377.576 116.612,377.575 114.632,377.494 113.485 C 377.414 112.338,377.349 113.380,377.350 115.800 M76.597 147.795 C 76.600 182.694,76.607 182.990,77.400 183.072 C 78.018 183.135,78.041 183.107,77.502 182.948 C 76.846 182.755,76.798 180.632,76.699 147.671 L 76.593 112.600 76.597 147.795 M337.700 113.076 C 338.085 113.176,338.715 113.176,339.100 113.076 C 339.485 112.975,339.170 112.893,338.400 112.893 C 337.630 112.893,337.315 112.975,337.700 113.076 M157.200 118.745 L 157.200 124.290 160.700 124.550 C 169.703 125.219,174.789 125.771,174.508 126.047 C 174.233 126.317,167.260 126.015,159.900 125.415 L 157.200 125.194 157.200 130.546 L 157.200 135.897 159.100 136.133 C 160.145 136.262,164.020 136.492,167.712 136.642 C 171.462 136.795,174.534 137.093,174.673 137.317 C 174.923 137.723,162.443 137.429,158.922 136.946 L 157.243 136.716 157.122 142.392 C 157.055 145.515,157.075 148.144,157.167 148.235 C 157.258 148.326,160.858 148.402,165.167 148.405 C 169.475 148.408,173.403 148.519,173.896 148.651 C 176.214 149.272,173.712 149.469,165.812 149.287 L 157.200 149.088 157.200 154.944 L 157.200 160.800 160.100 160.809 C 161.695 160.814,174.745 160.601,189.100 160.334 L 215.200 159.850 215.200 154.925 L 215.200 150.000 207.800 150.000 C 202.605 150.000,200.400 149.867,200.400 149.552 C 200.400 149.232,202.491 149.147,207.700 149.252 L 215.000 149.400 215.112 144.560 L 215.224 139.720 211.912 139.463 C 210.090 139.321,207.070 139.191,205.200 139.174 C 203.330 139.158,201.440 138.973,201.000 138.765 C 200.316 138.441,211.290 138.557,214.200 138.904 C 214.961 138.995,215.000 138.765,215.000 134.200 L 215.000 129.400 209.200 128.881 C 197.550 127.837,198.730 127.447,211.100 128.253 L 215.200 128.520 215.200 124.048 C 215.200 120.814,215.061 119.535,214.700 119.429 C 214.425 119.349,212.130 119.075,209.600 118.821 C 205.116 118.371,194.546 117.176,181.200 115.610 C 169.754 114.268,159.578 113.200,158.232 113.200 L 157.200 113.200 157.200 118.745 M374.591 148.000 C 374.591 167.030,374.640 174.815,374.700 165.300 C 374.760 155.785,374.760 140.215,374.700 130.700 C 374.640 121.185,374.591 128.970,374.591 148.000 M224.700 115.082 C 225.195 115.178,226.005 115.178,226.500 115.082 C 226.995 114.987,226.590 114.909,225.600 114.909 C 224.610 114.909,224.205 114.987,224.700 115.082 M97.107 116.290 C 97.826 116.379,98.906 116.377,99.507 116.286 C 100.108 116.195,99.520 116.122,98.200 116.124 C 96.880 116.126,96.388 116.201,97.107 116.290 M102.800 129.720 L 102.999 143.400 103.105 130.025 C 103.163 122.670,103.074 116.513,102.905 116.345 C 102.737 116.177,102.690 122.195,102.800 129.720 M83.507 116.690 C 84.226 116.779,85.306 116.777,85.907 116.686 C 86.508 116.595,85.920 116.522,84.600 116.524 C 83.280 116.526,82.788 116.601,83.507 116.690 M290.528 119.200 C 290.528 120.630,290.601 121.215,290.689 120.500 C 290.778 119.785,290.778 118.615,290.689 117.900 C 290.601 117.185,290.528 117.770,290.528 119.200 M184.600 118.603 C 188.340 118.947,193.290 119.356,195.600 119.514 L 199.800 119.800 199.905 134.900 L 200.010 150.000 187.650 150.000 L 175.291 150.000 175.056 148.300 C 174.891 147.104,175.011 118.568,175.185 117.725 C 175.193 117.684,175.785 117.724,176.500 117.815 C 177.215 117.905,180.860 118.260,184.600 118.603 M86.700 118.693 C 87.635 118.777,89.165 118.777,90.100 118.693 C 91.035 118.609,90.270 118.540,88.400 118.540 C 86.530 118.540,85.765 118.609,86.700 118.693 M148.400 121.555 C 148.400 121.888,139.250 122.198,119.800 122.524 C 114.784 122.609,112.045 122.533,113.000 122.337 C 113.880 122.157,121.440 121.857,129.800 121.672 C 138.160 121.487,145.765 121.305,146.700 121.267 C 147.635 121.230,148.400 121.360,148.400 121.555 M186.909 124.000 C 186.909 124.990,186.987 125.395,187.082 124.900 C 187.178 124.405,187.178 123.595,187.082 123.100 C 186.987 122.605,186.909 123.010,186.909 124.000 M290.589 149.600 C 290.589 164.450,290.639 170.525,290.700 163.100 C 290.761 155.675,290.761 143.525,290.700 136.100 C 290.639 128.675,290.589 134.750,290.589 149.600 M80.964 137.000 C 80.963 140.740,81.023 142.324,81.097 140.520 C 81.171 138.715,81.172 135.655,81.098 133.720 C 81.025 131.784,80.964 133.260,80.964 137.000 M180.700 135.082 C 181.195 135.178,182.005 135.178,182.500 135.082 C 182.995 134.987,182.590 134.909,181.600 134.909 C 180.610 134.909,180.205 134.987,180.700 135.082 M195.300 135.876 C 195.685 135.976,196.315 135.976,196.700 135.876 C 197.085 135.775,196.770 135.693,196.000 135.693 C 195.230 135.693,194.915 135.775,195.300 135.876 M382.157 145.600 C 382.157 148.570,382.220 149.785,382.297 148.300 C 382.374 146.815,382.374 144.385,382.297 142.900 C 382.220 141.415,382.157 142.630,382.157 145.600 M98.500 141.476 C 98.885 141.576,99.515 141.576,99.900 141.476 C 100.285 141.375,99.970 141.293,99.200 141.293 C 98.430 141.293,98.115 141.375,98.500 141.476 M53.314 145.800 C 53.317 146.900,53.395 147.303,53.487 146.695 C 53.579 146.086,53.577 145.186,53.482 144.695 C 53.387 144.203,53.311 144.700,53.314 145.800 M191.100 147.095 C 192.255 147.176,194.145 147.176,195.300 147.095 C 196.455 147.014,195.510 146.948,193.200 146.948 C 190.890 146.948,189.945 147.014,191.100 147.095 M382.181 168.800 C 382.181 176.830,382.234 180.115,382.299 176.100 C 382.365 172.085,382.365 165.515,382.299 161.500 C 382.234 157.485,382.181 160.770,382.181 168.800 M198.000 160.858 C 193.490 161.047,182.510 161.337,173.600 161.501 L 157.400 161.800 157.289 167.517 L 157.178 173.234 161.689 172.998 C 181.751 171.947,206.835 170.800,209.767 170.800 C 216.686 170.800,212.731 171.272,201.134 171.830 C 194.680 172.140,185.170 172.659,180.000 172.983 C 174.830 173.307,167.630 173.693,164.000 173.841 C 156.205 174.160,156.972 173.449,157.122 180.216 L 157.245 185.714 160.122 185.458 C 161.705 185.317,168.130 184.668,174.400 184.015 C 185.721 182.837,189.800 182.421,206.494 180.742 L 215.187 179.868 215.094 170.234 L 215.000 160.600 210.600 160.556 C 208.180 160.532,202.510 160.668,198.000 160.858 M53.314 162.600 C 53.317 163.700,53.395 164.103,53.487 163.495 C 53.579 162.886,53.577 161.986,53.482 161.495 C 53.387 161.003,53.311 161.500,53.314 162.600 M152.974 175.800 C 152.975 181.520,153.031 183.804,153.099 180.876 C 153.168 177.948,153.167 173.268,153.099 170.476 C 153.030 167.684,152.974 170.080,152.974 175.800 M53.337 171.000 C 53.339 172.760,53.409 173.430,53.493 172.489 C 53.578 171.549,53.577 170.109,53.491 169.289 C 53.405 168.470,53.336 169.240,53.337 171.000 M219.748 174.800 C 219.748 177.110,219.814 178.055,219.895 176.900 C 219.976 175.745,219.976 173.855,219.895 172.700 C 219.814 171.545,219.748 172.490,219.748 174.800 M250.161 175.600 C 250.198 176.542,250.333 176.602,252.502 176.633 L 254.804 176.666 252.627 176.514 C 250.758 176.383,250.426 176.237,250.286 175.481 C 250.151 174.749,250.129 174.770,250.161 175.600 M257.100 176.682 C 257.595 176.778,258.405 176.778,258.900 176.682 C 259.395 176.587,258.990 176.509,258.000 176.509 C 257.010 176.509,256.605 176.587,257.100 176.682 M275.682 176.696 C 277.158 176.773,279.678 176.773,281.282 176.697 C 282.887 176.621,281.680 176.558,278.600 176.558 C 275.520 176.557,274.207 176.619,275.682 176.696 M83.105 183.483 C 83.602 183.579,84.322 183.575,84.705 183.475 C 85.087 183.375,84.680 183.296,83.800 183.301 C 82.920 183.305,82.607 183.387,83.105 183.483 M50.905 189.887 C 51.514 189.979,52.414 189.977,52.905 189.882 C 53.397 189.787,52.900 189.711,51.800 189.714 C 50.700 189.717,50.297 189.795,50.905 189.887 M305.278 189.898 C 307.631 189.969,311.591 189.969,314.078 189.899 C 316.565 189.829,314.640 189.771,309.800 189.770 C 304.960 189.770,302.925 189.828,305.278 189.898 M321.700 189.887 C 322.305 189.978,323.295 189.978,323.900 189.887 C 324.505 189.795,324.010 189.720,322.800 189.720 C 321.590 189.720,321.095 189.795,321.700 189.887 M88.100 190.297 C 89.585 190.374,92.015 190.374,93.500 190.297 C 94.985 190.220,93.770 190.157,90.800 190.157 C 87.830 190.157,86.615 190.220,88.100 190.297 M233.507 190.290 C 234.226 190.379,235.306 190.377,235.907 190.286 C 236.508 190.195,235.920 190.122,234.600 190.124 C 233.280 190.126,232.788 190.201,233.507 190.290 M129.505 190.683 C 130.002 190.779,130.722 190.775,131.105 190.675 C 131.487 190.575,131.080 190.496,130.200 190.501 C 129.320 190.505,129.007 190.587,129.505 190.683 M146.300 190.682 C 146.795 190.778,147.605 190.778,148.100 190.682 C 148.595 190.587,148.190 190.509,147.200 190.509 C 146.210 190.509,145.805 190.587,146.300 190.682 M168.240 200.042 C 158.005 201.535,150.808 205.432,147.632 211.200 C 145.864 214.411,145.498 221.294,146.952 224.000 C 148.237 226.392,150.857 229.741,152.504 231.097 C 153.542 231.952,153.896 232.459,153.540 232.582 C 123.083 243.178,125.797 272.161,157.800 278.082 C 161.702 278.804,178.811 278.782,182.779 278.051 C 186.782 277.312,193.306 275.164,197.468 273.214 L 200.873 271.617 205.124 274.465 L 209.376 277.312 223.180 277.230 C 230.773 277.185,237.047 277.086,237.123 277.010 C 237.296 276.837,234.598 274.353,231.200 271.556 C 229.770 270.379,226.547 267.612,224.038 265.408 C 221.529 263.204,218.937 260.940,218.278 260.377 L 217.080 259.354 219.280 256.377 C 222.913 251.462,228.400 240.425,228.400 238.033 C 228.400 237.211,228.268 237.200,218.300 237.201 L 208.200 237.202 207.017 239.501 C 205.652 242.156,202.710 246.805,202.406 246.789 C 202.293 246.782,200.130 245.144,197.600 243.149 C 195.070 241.153,192.145 238.892,191.100 238.123 C 188.928 236.525,188.943 236.207,191.204 235.846 C 198.343 234.704,208.153 227.538,210.197 221.970 C 214.090 211.366,205.540 202.133,189.871 200.022 C 186.212 199.529,171.665 199.542,168.240 200.042 M30.644 200.329 C 30.528 200.516,30.404 217.844,30.369 238.835 L 30.304 277.000 44.252 277.000 L 58.200 277.000 58.306 266.126 L 58.413 255.253 81.306 255.085 C 106.123 254.904,107.789 254.773,113.142 252.594 C 123.774 248.266,129.254 239.607,129.229 227.174 C 129.196 210.631,119.710 201.561,101.246 200.419 C 94.026 199.972,30.914 199.892,30.644 200.329 M244.000 238.605 L 244.000 277.211 257.300 277.105 L 270.600 277.000 270.800 253.000 L 271.000 229.000 272.200 230.924 C 272.860 231.982,274.409 234.412,275.642 236.324 C 276.876 238.236,281.620 245.830,286.184 253.200 C 290.749 260.570,295.608 268.400,296.981 270.600 C 298.354 272.800,299.782 275.190,300.155 275.912 L 300.833 277.224 305.916 277.112 L 311.000 277.000 313.400 273.313 C 315.804 269.619,320.654 261.927,332.134 243.600 C 339.569 231.729,340.449 230.400,340.871 230.400 C 341.052 230.400,341.200 240.930,341.200 253.800 L 341.200 277.200 354.154 277.200 L 367.109 277.200 367.368 265.900 C 367.712 250.967,367.489 201.138,367.076 200.500 C 366.715 199.941,334.187 199.754,333.359 200.306 C 332.897 200.614,331.469 202.874,321.802 218.600 C 315.276 229.216,308.096 240.561,307.166 241.728 C 306.893 242.070,305.087 239.289,296.691 225.600 C 293.925 221.090,290.869 216.140,289.900 214.600 C 288.931 213.060,287.092 210.090,285.814 208.000 C 284.536 205.910,282.883 203.255,282.141 202.100 L 280.792 200.000 262.396 200.000 L 244.000 200.000 244.000 238.605 M183.645 215.658 C 189.067 217.990,187.212 224.549,180.609 226.398 C 179.603 226.679,178.683 227.066,178.565 227.257 C 178.257 227.755,175.272 225.601,173.291 223.452 C 168.228 217.960,175.781 212.274,183.645 215.658 M95.043 219.430 C 103.010 221.746,103.365 231.505,95.620 235.319 L 93.019 236.600 75.709 236.727 L 58.400 236.853 58.400 227.827 L 58.400 218.800 75.638 218.800 C 90.139 218.800,93.221 218.900,95.043 219.430 M167.926 245.180 C 169.554 246.553,173.052 249.337,182.520 256.796 C 185.325 259.005,185.325 259.011,182.500 260.263 C 177.092 262.659,167.639 263.148,163.400 261.252 C 155.946 257.918,155.759 250.306,163.007 245.229 C 165.840 243.245,165.632 243.247,167.926 245.180 M114.700 295.482 C 115.195 295.578,116.005 295.578,116.500 295.482 C 116.995 295.387,116.590 295.309,115.600 295.309 C 114.610 295.309,114.205 295.387,114.700 295.482 M136.700 295.482 C 137.195 295.578,138.005 295.578,138.500 295.482 C 138.995 295.387,138.590 295.309,137.600 295.309 C 136.610 295.309,136.205 295.387,136.700 295.482 M187.300 295.487 C 187.905 295.578,188.895 295.578,189.500 295.487 C 190.105 295.395,189.610 295.320,188.400 295.320 C 187.190 295.320,186.695 295.395,187.300 295.487 M90.300 295.882 C 90.795 295.978,91.605 295.978,92.100 295.882 C 92.595 295.787,92.190 295.709,91.200 295.709 C 90.210 295.709,89.805 295.787,90.300 295.882 M242.800 295.755 C 242.800 295.840,243.330 295.987,243.979 296.082 C 244.627 296.177,245.067 296.108,244.955 295.928 C 244.757 295.607,242.800 295.450,242.800 295.755 M252.500 295.876 C 252.885 295.976,253.515 295.976,253.900 295.876 C 254.285 295.775,253.970 295.693,253.200 295.693 C 252.430 295.693,252.115 295.775,252.500 295.876 M312.979 296.112 C 312.870 296.393,312.832 300.128,312.892 304.412 L 313.002 312.200 313.201 303.900 C 313.396 295.764,313.376 295.075,312.979 296.112 M314.705 295.883 C 315.202 295.979,315.922 295.975,316.305 295.875 C 316.687 295.775,316.280 295.696,315.400 295.701 C 314.520 295.705,314.207 295.787,314.705 295.883 M48.967 303.600 C 48.967 307.890,49.026 309.645,49.098 307.500 C 49.170 305.355,49.170 301.845,49.098 299.700 C 49.026 297.555,48.967 299.310,48.967 303.600 M323.369 304.200 C 323.370 308.820,323.428 310.655,323.499 308.278 C 323.570 305.901,323.569 302.121,323.498 299.878 C 323.427 297.635,323.369 299.580,323.369 304.200 M199.301 297.800 C 199.305 298.680,199.387 298.993,199.483 298.495 C 199.579 297.998,199.575 297.278,199.475 296.895 C 199.375 296.513,199.296 296.920,199.301 297.800 M256.965 304.800 C 256.965 308.650,257.025 310.225,257.098 308.300 C 257.171 306.375,257.171 303.225,257.098 301.300 C 257.025 299.375,256.965 300.950,256.965 304.800 M251.724 301.400 C 251.726 302.720,251.801 303.212,251.890 302.493 C 251.979 301.774,251.977 300.694,251.886 300.093 C 251.795 299.492,251.722 300.080,251.724 301.400 M244.960 305.800 C 244.961 309.100,245.022 310.397,245.098 308.682 C 245.173 306.967,245.172 304.267,245.097 302.682 C 245.021 301.097,244.959 302.500,244.960 305.800 M292.172 309.200 C 292.172 314.370,292.229 316.485,292.299 313.900 C 292.368 311.315,292.368 307.085,292.299 304.500 C 292.229 301.915,292.172 304.030,292.172 309.200 M74.970 309.400 C 74.971 314.240,75.029 316.165,75.099 313.678 C 75.169 311.191,75.169 307.231,75.098 304.878 C 75.028 302.525,74.970 304.560,74.970 309.400 M219.314 302.600 C 219.317 303.700,219.395 304.103,219.487 303.495 C 219.579 302.886,219.577 301.986,219.482 301.495 C 219.387 301.003,219.311 301.500,219.314 302.600 M339.293 303.200 C 339.293 303.970,339.375 304.285,339.476 303.900 C 339.576 303.515,339.576 302.885,339.476 302.500 C 339.375 302.115,339.293 302.430,339.293 303.200 M146.550 306.600 C 146.551 309.020,146.616 309.958,146.696 308.685 C 146.776 307.412,146.775 305.432,146.694 304.285 C 146.614 303.138,146.549 304.180,146.550 306.600 M96.544 306.800 C 96.544 308.890,96.612 309.745,96.694 308.700 C 96.776 307.655,96.776 305.945,96.694 304.900 C 96.612 303.855,96.544 304.710,96.544 306.800 M106.150 307.400 C 106.151 309.820,106.216 310.758,106.296 309.485 C 106.376 308.212,106.375 306.232,106.294 305.085 C 106.214 303.938,106.149 304.980,106.150 307.400 M128.548 307.200 C 128.548 309.510,128.614 310.455,128.695 309.300 C 128.776 308.145,128.776 306.255,128.695 305.100 C 128.614 303.945,128.548 304.890,128.548 307.200 M133.714 306.200 C 133.717 307.300,133.795 307.703,133.887 307.095 C 133.979 306.486,133.977 305.586,133.882 305.095 C 133.787 304.603,133.711 305.100,133.714 306.200 M353.900 305.082 C 354.395 305.178,355.205 305.178,355.700 305.082 C 356.195 304.987,355.790 304.909,354.800 304.909 C 353.810 304.909,353.405 304.987,353.900 305.082 M225.500 306.282 C 225.995 306.378,226.805 306.378,227.300 306.282 C 227.795 306.187,227.390 306.109,226.400 306.109 C 225.410 306.109,225.005 306.187,225.500 306.282 M219.331 310.600 C 219.333 312.140,219.405 312.721,219.492 311.891 C 219.579 311.061,219.577 309.801,219.489 309.091 C 219.400 308.381,219.329 309.060,219.331 310.600 M351.312 309.095 C 352.364 309.177,353.984 309.176,354.912 309.092 C 355.840 309.008,354.980 308.941,353.000 308.942 C 351.020 308.943,350.260 309.012,351.312 309.095 M349.328 312.000 C 349.328 313.430,349.401 314.015,349.489 313.300 C 349.578 312.585,349.578 311.415,349.489 310.700 C 349.401 309.985,349.328 310.570,349.328 312.000 M251.693 311.200 C 251.693 311.970,251.775 312.285,251.876 311.900 C 251.976 311.515,251.976 310.885,251.876 310.500 C 251.775 310.115,251.693 310.430,251.693 311.200 M355.600 314.556 C 355.600 314.642,356.217 314.785,356.972 314.873 C 357.727 314.961,358.256 314.890,358.148 314.716 C 357.955 314.403,355.600 314.255,355.600 314.556 M219.301 317.000 C 219.305 317.880,219.387 318.193,219.483 317.695 C 219.579 317.198,219.575 316.478,219.475 316.095 C 219.375 315.713,219.296 316.120,219.301 317.000 M29.700 319.476 C 30.085 319.576,30.715 319.576,31.100 319.476 C 31.485 319.375,31.170 319.293,30.400 319.293 C 29.630 319.293,29.315 319.375,29.700 319.476 M114.700 330.300 C 162.715 330.356,241.285 330.356,289.300 330.300 C 337.315 330.244,298.030 330.198,202.000 330.198 C 105.970 330.198,66.685 330.244,114.700 330.300 " stroke="none" fill="#d00c0d" fill-rule="evenodd"></path><path id="path1" d="M95.549 52.266 C 95.247 52.632,94.258 53.487,93.352 54.166 C 92.446 54.845,89.926 56.896,87.752 58.724 C 85.578 60.552,82.000 63.555,79.800 65.397 C 77.600 67.240,73.100 71.031,69.800 73.823 C 66.500 76.615,61.730 80.624,59.200 82.733 C 53.762 87.265,41.155 97.939,39.300 99.581 C 37.853 100.861,37.323 105.741,38.523 106.736 C 38.923 107.068,47.540 108.400,49.288 108.400 C 50.035 108.400,49.648 182.731,48.900 182.963 C 47.921 183.267,37.629 185.037,31.375 185.977 C 24.399 187.026,22.325 187.973,24.700 189.024 C 27.454 190.244,379.972 190.581,387.859 189.372 C 393.033 188.579,392.042 184.692,386.538 184.189 C 384.812 184.031,383.085 183.738,382.700 183.537 C 382.041 183.193,382.000 181.072,382.000 147.586 L 382.000 112.000 384.145 112.000 L 386.290 112.000 386.801 106.989 C 387.082 104.233,387.242 101.921,387.156 101.850 C 387.015 101.734,383.694 100.364,371.800 95.515 C 369.600 94.618,365.730 93.017,363.200 91.956 C 358.432 89.957,344.191 84.081,338.600 81.806 C 336.840 81.090,333.150 79.565,330.400 78.419 C 327.650 77.272,323.420 75.518,321.000 74.520 C 318.580 73.523,315.565 72.278,314.300 71.753 C 313.035 71.229,310.965 70.371,309.700 69.846 C 308.435 69.322,306.050 68.318,304.400 67.616 C 302.750 66.913,300.383 65.953,299.139 65.482 L 296.878 64.626 292.739 65.724 C 290.463 66.327,286.980 67.271,285.000 67.821 C 283.020 68.371,278.700 69.524,275.400 70.383 C 272.100 71.242,267.330 72.484,264.800 73.144 C 262.270 73.803,251.560 76.628,241.000 79.421 C 230.440 82.214,217.763 85.544,212.829 86.821 L 203.858 89.142 200.229 87.021 C 195.119 84.034,184.834 77.743,180.683 75.065 C 177.134 72.776,175.554 72.240,165.200 69.817 C 163.990 69.534,158.050 68.013,152.000 66.439 C 135.718 62.201,131.459 61.081,122.200 58.604 C 117.580 57.367,111.820 55.835,109.400 55.198 C 106.980 54.560,103.161 53.490,100.913 52.820 C 96.134 51.394,96.258 51.406,95.549 52.266 M99.260 59.576 C 100.657 60.443,104.005 62.513,106.700 64.176 C 109.395 65.839,113.856 68.595,116.614 70.300 C 122.967 74.228,124.017 74.875,129.492 78.240 C 131.963 79.758,139.118 84.227,145.392 88.172 L 156.800 95.344 156.800 97.872 C 156.800 99.262,156.681 100.400,156.535 100.400 C 156.197 100.400,151.087 97.340,147.200 94.810 C 145.550 93.736,141.680 91.283,138.600 89.359 C 135.520 87.434,131.830 85.114,130.400 84.203 C 128.970 83.292,123.210 79.693,117.600 76.206 C 111.990 72.718,106.230 69.120,104.800 68.210 C 103.370 67.300,101.390 66.067,100.400 65.471 C 99.410 64.875,98.310 64.182,97.956 63.931 C 97.303 63.468,93.279 66.370,87.414 71.534 C 85.284 73.409,82.846 75.414,76.390 80.600 C 72.078 84.063,63.478 91.044,60.000 93.904 C 58.570 95.079,55.690 97.416,53.600 99.096 C 51.510 100.775,49.740 102.296,49.667 102.475 C 49.487 102.912,45.304 102.892,45.032 102.452 C 44.836 102.134,46.919 100.023,51.013 96.392 C 53.273 94.386,70.560 79.675,72.623 78.000 C 73.572 77.230,79.325 72.415,85.408 67.300 C 91.491 62.185,96.525 58.000,96.594 58.000 C 96.663 58.000,97.863 58.709,99.260 59.576 M122.757 65.830 C 124.871 66.837,127.770 68.344,129.200 69.178 C 130.630 70.013,133.960 71.923,136.600 73.423 C 139.240 74.924,142.840 77.081,144.600 78.217 C 146.360 79.353,148.700 80.800,149.800 81.433 C 154.515 84.144,164.054 90.863,164.349 91.681 C 164.527 92.174,160.703 90.090,154.400 86.257 C 146.105 81.213,135.079 74.593,130.800 72.089 C 117.834 64.500,114.472 61.885,122.757 65.830 M104.666 71.447 C 108.370 73.782,113.290 76.905,115.600 78.386 C 117.910 79.866,120.385 81.414,121.100 81.825 C 123.258 83.066,122.779 83.599,119.500 83.606 C 116.736 83.612,111.986 83.897,100.000 84.780 C 79.430 86.294,73.196 86.554,74.033 85.863 C 84.069 77.584,88.793 73.752,91.200 71.940 C 92.850 70.697,94.830 69.130,95.600 68.457 C 97.493 66.801,97.086 66.667,104.666 71.447 M142.705 71.387 C 146.464 73.250,151.340 75.850,153.541 77.165 C 155.742 78.479,158.231 79.934,159.071 80.398 C 164.246 83.254,174.086 89.429,175.551 90.739 C 176.599 91.678,176.598 91.678,174.800 90.682 C 173.810 90.133,169.940 87.987,166.200 85.913 C 162.460 83.838,157.060 80.909,154.200 79.404 C 146.034 75.106,134.800 68.594,134.800 68.159 C 134.800 67.628,136.624 68.373,142.705 71.387 M299.844 71.431 C 301.580 72.218,303.765 73.208,304.699 73.632 C 305.633 74.056,310.223 75.952,314.899 77.845 C 319.575 79.739,327.810 83.081,333.200 85.272 C 338.590 87.463,347.230 90.975,352.400 93.077 C 367.380 99.166,378.291 103.500,380.425 104.208 L 382.400 104.864 382.400 107.076 C 382.400 109.936,385.078 110.667,361.600 101.398 C 357.530 99.792,350.330 96.999,345.600 95.193 C 340.870 93.387,335.290 91.221,333.200 90.379 C 331.110 89.537,327.690 88.193,325.600 87.393 C 318.943 84.844,300.671 77.587,298.700 76.709 L 296.800 75.863 294.900 76.708 C 292.915 77.591,292.174 77.903,281.900 82.178 C 278.435 83.620,272.765 85.980,269.300 87.422 C 265.835 88.863,262.010 90.467,260.800 90.984 C 259.590 91.501,255.090 93.389,250.800 95.178 C 246.510 96.968,242.146 98.815,241.101 99.284 C 238.876 100.282,238.964 100.332,238.703 97.908 C 238.396 95.051,237.428 95.637,255.400 87.814 C 257.820 86.760,262.950 84.502,266.800 82.796 C 270.650 81.090,276.590 78.476,280.000 76.986 C 283.410 75.497,288.270 73.331,290.800 72.173 C 296.353 69.632,295.949 69.665,299.844 71.431 M162.142 76.683 C 170.871 81.211,177.098 84.809,176.180 84.794 C 175.287 84.779,161.028 77.250,159.532 76.003 C 158.110 74.818,158.987 75.047,162.142 76.683 M132.303 89.268 C 136.989 92.386,140.683 95.067,140.512 95.226 C 140.340 95.386,136.240 95.719,131.400 95.968 C 126.560 96.216,119.990 96.590,116.800 96.798 C 108.207 97.359,82.619 99.107,73.000 99.791 C 68.380 100.119,63.025 100.391,61.100 100.394 C 59.037 100.398,57.600 100.564,57.600 100.800 C 57.600 101.369,63.261 101.301,72.200 100.625 C 76.380 100.309,81.780 99.940,84.200 99.804 C 86.620 99.668,90.670 99.385,93.200 99.175 C 97.518 98.816,108.883 98.055,132.126 96.568 L 142.051 95.933 145.326 98.026 C 147.127 99.177,149.050 100.425,149.600 100.798 C 150.150 101.171,151.186 101.779,151.902 102.149 L 153.204 102.822 153.102 144.511 L 153.000 186.200 145.400 186.094 C 137.077 185.979,119.265 185.275,114.200 184.861 L 111.000 184.600 111.000 179.600 L 111.000 174.600 129.600 174.753 C 139.830 174.837,148.070 174.767,147.911 174.597 C 147.752 174.428,139.382 174.179,129.311 174.045 L 111.000 173.800 110.889 167.869 L 110.778 161.938 129.589 162.069 C 139.935 162.141,148.400 162.093,148.400 161.963 C 148.400 161.600,134.682 161.202,122.090 161.201 L 110.779 161.200 110.890 155.100 L 111.000 149.000 123.000 148.757 C 129.600 148.623,138.015 148.488,141.700 148.457 C 146.177 148.419,148.400 148.257,148.400 147.970 C 148.400 147.669,145.489 147.606,138.700 147.759 C 133.365 147.880,124.950 147.997,120.000 148.019 L 111.000 148.060 110.890 142.030 L 110.779 136.000 113.090 136.003 C 120.274 136.014,147.124 135.043,147.800 134.749 C 148.258 134.549,141.253 134.517,131.400 134.675 C 121.940 134.826,113.480 134.961,112.600 134.975 L 111.000 135.000 111.000 122.878 L 111.000 110.756 115.200 110.576 C 122.384 110.268,143.273 109.606,145.900 109.603 C 147.298 109.601,148.400 109.424,148.400 109.200 C 148.400 108.652,143.448 108.702,128.200 109.402 C 110.354 110.221,110.800 110.231,110.800 109.000 L 110.800 108.000 106.791 108.000 C 102.909 108.000,87.802 108.587,77.620 109.133 L 72.639 109.400 72.620 110.800 L 72.600 112.200 65.610 112.310 C 61.236 112.379,58.467 112.582,58.210 112.855 C 57.915 113.167,59.882 113.249,65.200 113.145 L 72.600 113.000 72.711 118.700 L 72.822 124.400 70.311 124.402 C 65.046 124.405,57.600 124.938,57.600 125.312 C 57.600 125.554,60.417 125.643,65.100 125.550 L 72.600 125.400 72.600 131.000 L 72.600 136.600 65.410 136.710 C 61.153 136.774,58.053 136.988,57.810 137.232 C 57.528 137.515,59.778 137.622,65.000 137.572 L 72.600 137.500 72.600 143.250 L 72.600 149.000 68.600 149.023 C 60.651 149.069,57.071 149.205,57.316 149.449 C 57.453 149.587,60.948 149.722,65.083 149.749 L 72.600 149.800 72.600 155.400 L 72.600 161.000 65.100 160.845 C 59.674 160.733,57.600 160.816,57.600 161.145 C 57.600 161.468,59.667 161.602,64.700 161.606 C 73.540 161.614,72.850 161.112,72.712 167.431 L 72.600 172.600 67.800 172.489 C 65.160 172.427,61.762 172.272,60.248 172.143 C 58.448 171.989,57.582 172.048,57.745 172.311 C 57.886 172.539,61.201 172.840,65.409 173.006 L 72.824 173.298 72.712 178.117 L 72.600 182.936 69.600 182.819 C 67.950 182.755,63.630 182.589,60.000 182.451 L 53.400 182.200 53.510 142.800 L 53.619 103.400 55.310 101.884 C 57.652 99.783,62.915 95.281,68.072 90.966 L 72.416 87.332 76.108 87.266 C 78.139 87.230,80.700 87.106,81.800 86.989 C 82.900 86.873,88.840 86.423,95.000 85.990 C 108.218 85.059,121.155 84.025,122.000 83.831 C 122.330 83.755,122.866 83.672,123.191 83.646 C 123.516 83.621,127.616 86.151,132.303 89.268 M235.421 98.050 L 235.578 100.278 230.726 100.539 C 222.054 101.005,222.408 101.061,218.926 98.700 L 215.829 96.600 223.814 96.316 C 228.206 96.160,232.430 95.967,233.200 95.887 C 235.277 95.671,235.251 95.646,235.421 98.050 M168.600 97.215 C 171.020 97.639,174.530 98.249,176.400 98.572 C 178.270 98.894,182.140 99.608,185.000 100.159 C 193.117 101.722,204.698 103.818,212.800 105.188 C 216.870 105.877,221.460 106.656,223.000 106.920 L 225.800 107.400 225.921 109.500 C 225.987 110.655,225.876 111.600,225.673 111.600 C 225.471 111.600,223.796 111.343,221.952 111.029 C 220.109 110.715,217.160 110.254,215.400 110.004 C 213.640 109.754,210.310 109.211,208.000 108.797 C 205.690 108.383,200.200 107.480,195.800 106.791 C 191.400 106.102,182.940 104.750,177.000 103.786 C 171.060 102.822,165.300 101.920,164.200 101.783 C 160.694 101.344,160.800 101.445,160.800 98.538 L 160.800 95.930 162.500 96.187 C 163.435 96.329,166.180 96.792,168.600 97.215 M235.900 105.411 L 237.200 105.700 237.200 141.426 C 237.200 168.578,237.086 177.223,236.725 177.446 C 236.180 177.783,220.100 179.060,219.901 178.783 C 219.829 178.682,219.840 164.218,219.925 146.641 L 220.080 114.682 225.040 114.917 L 230.000 115.151 230.000 110.418 C 230.000 106.495,229.893 105.645,229.375 105.446 C 227.131 104.585,232.072 104.558,235.900 105.411 M244.800 144.400 L 244.800 182.400 243.400 182.400 L 242.000 182.400 242.000 144.400 L 242.000 106.400 243.400 106.400 L 244.800 106.400 244.800 144.400 M162.400 107.782 C 164.930 108.098,171.050 108.917,176.000 109.601 C 188.782 111.367,202.442 113.152,209.200 113.941 L 215.000 114.618 215.127 116.151 C 215.367 119.059,217.346 118.982,198.800 116.789 C 178.883 114.433,160.194 112.400,158.457 112.400 L 157.200 112.400 157.200 109.800 C 157.200 108.370,157.335 107.201,157.500 107.203 C 157.665 107.205,159.870 107.465,162.400 107.782 M254.058 109.177 C 255.456 109.604,260.650 111.124,265.600 112.555 C 270.550 113.986,276.130 115.661,278.000 116.278 L 281.400 117.400 282.674 121.000 L 283.948 124.600 283.974 150.704 L 284.000 176.809 267.100 176.704 L 250.200 176.600 250.098 142.500 C 249.981 103.506,249.473 107.776,254.058 109.177 M107.502 147.761 L 107.604 184.522 101.902 184.262 C 98.766 184.120,91.970 183.816,86.800 183.588 C 81.630 183.360,77.175 183.095,76.900 182.999 C 76.340 182.804,76.149 113.412,76.706 112.540 C 76.908 112.224,81.427 111.928,91.200 111.591 C 99.010 111.321,105.483 111.025,105.584 110.933 C 105.684 110.841,106.134 110.819,106.584 110.883 C 107.398 111.000,107.400 111.096,107.502 147.761 M366.891 111.900 C 367.230 112.285,368.068 113.605,368.753 114.832 L 370.000 117.065 370.000 149.792 L 370.000 182.519 364.500 182.234 C 355.383 181.762,335.503 180.317,320.000 178.999 C 316.150 178.672,308.320 178.124,302.600 177.782 C 296.880 177.440,291.791 176.991,291.290 176.784 L 290.381 176.408 290.490 146.504 L 290.600 116.600 292.800 116.324 C 294.010 116.172,297.790 115.855,301.200 115.619 C 310.866 114.951,322.995 114.078,332.400 113.374 C 363.893 111.016,366.034 110.925,366.891 111.900 M376.700 111.452 L 377.600 111.693 377.600 147.223 C 377.600 166.764,377.450 182.846,377.266 182.959 C 377.082 183.073,376.407 183.026,375.766 182.854 L 374.600 182.542 374.481 149.371 C 374.416 131.127,374.475 115.075,374.613 113.700 C 374.869 111.148,375.007 110.999,376.700 111.452 M163.132 113.610 C 171.760 114.524,174.892 114.871,181.200 115.610 C 194.546 117.176,205.116 118.371,209.600 118.821 C 212.130 119.075,214.425 119.349,214.700 119.429 C 215.061 119.535,215.200 120.814,215.200 124.048 L 215.200 128.520 211.100 128.253 C 198.730 127.447,197.550 127.837,209.200 128.881 L 215.000 129.400 215.000 134.200 C 215.000 138.765,214.961 138.995,214.200 138.904 C 211.290 138.557,200.316 138.441,201.000 138.765 C 201.440 138.973,203.330 139.158,205.200 139.174 C 207.070 139.191,210.090 139.321,211.912 139.463 L 215.224 139.720 215.112 144.560 L 215.000 149.400 207.700 149.252 C 202.491 149.147,200.400 149.232,200.400 149.552 C 200.400 149.867,202.605 150.000,207.800 150.000 L 215.200 150.000 215.200 154.925 L 215.200 159.850 189.100 160.334 C 174.745 160.601,161.695 160.814,160.100 160.809 L 157.200 160.800 157.200 154.944 L 157.200 149.088 165.812 149.287 C 173.712 149.469,176.214 149.272,173.896 148.651 C 173.403 148.519,169.475 148.408,165.167 148.405 C 160.858 148.402,157.258 148.326,157.167 148.235 C 157.075 148.144,157.055 145.515,157.122 142.392 L 157.243 136.716 158.922 136.946 C 162.443 137.429,174.923 137.723,174.673 137.317 C 174.534 137.093,171.462 136.795,167.712 136.642 C 164.020 136.492,160.145 136.262,159.100 136.133 L 157.200 135.897 157.200 130.546 L 157.200 125.194 159.900 125.415 C 167.260 126.015,174.233 126.317,174.508 126.047 C 174.789 125.771,169.703 125.219,160.700 124.550 L 157.200 124.290 157.200 118.745 L 157.200 113.200 158.232 113.200 C 158.799 113.200,161.004 113.384,163.132 113.610 M92.800 116.412 C 88.510 116.567,84.145 116.718,83.100 116.747 L 81.200 116.800 81.200 130.407 L 81.200 144.013 91.900 143.907 L 102.600 143.800 102.600 130.000 L 102.600 116.200 101.600 116.165 C 101.050 116.146,97.090 116.257,92.800 116.412 M100.600 129.833 L 100.600 141.400 92.264 141.400 L 83.927 141.400 83.981 130.216 C 84.011 124.065,84.131 118.935,84.250 118.816 C 84.435 118.630,99.094 118.079,100.200 118.217 C 100.456 118.249,100.600 122.422,100.600 129.833 M129.800 121.672 C 121.440 121.857,113.880 122.157,113.000 122.337 C 112.045 122.533,114.784 122.609,119.800 122.524 C 139.250 122.198,148.400 121.888,148.400 121.555 C 148.400 121.360,147.635 121.230,146.700 121.267 C 145.765 121.305,138.160 121.487,129.800 121.672 M178.000 127.122 C 178.000 133.649,177.603 133.118,182.725 133.453 L 186.742 133.716 187.026 132.201 C 187.259 130.962,186.967 122.433,186.682 122.149 C 186.637 122.104,184.665 121.937,182.300 121.779 L 178.000 121.491 178.000 127.122 M188.997 122.863 C 188.875 123.182,188.826 125.773,188.887 128.621 L 189.000 133.800 192.800 134.084 C 194.890 134.241,196.825 134.292,197.100 134.197 C 197.684 133.996,197.834 123.392,197.258 123.036 C 196.301 122.444,189.215 122.296,188.997 122.863 M178.159 135.363 C 178.058 135.625,178.026 138.261,178.088 141.220 L 178.200 146.600 182.600 146.600 L 187.000 146.600 187.111 141.110 C 187.240 134.739,187.786 135.369,181.871 135.066 C 179.361 134.937,178.289 135.023,178.159 135.363 M188.800 141.200 L 188.800 146.800 193.200 146.800 L 197.600 146.800 197.600 141.456 L 197.600 136.111 195.500 135.859 C 194.345 135.720,192.365 135.605,191.100 135.603 L 188.800 135.600 188.800 141.200 M101.025 149.520 C 100.465 151.285,102.082 152.347,103.228 150.966 C 103.608 150.509,103.638 150.148,103.336 149.666 C 102.721 148.685,101.319 148.596,101.025 149.520 M215.094 170.234 L 215.187 179.868 206.494 180.742 C 189.800 182.421,185.721 182.837,174.400 184.015 C 168.130 184.668,161.705 185.317,160.122 185.458 L 157.245 185.714 157.122 180.216 C 156.972 173.449,156.205 174.160,164.000 173.841 C 167.630 173.693,174.830 173.307,180.000 172.983 C 185.170 172.659,194.680 172.140,201.134 171.830 C 212.731 171.272,216.686 170.800,209.767 170.800 C 206.835 170.800,181.751 171.947,161.689 172.998 L 157.178 173.234 157.289 167.517 L 157.400 161.800 173.600 161.501 C 182.510 161.337,193.490 161.047,198.000 160.858 C 202.510 160.668,208.180 160.532,210.600 160.556 L 215.000 160.600 215.094 170.234 M9.769 287.338 C 9.655 287.633,9.616 294.428,9.681 302.438 L 9.800 317.000 10.896 319.340 C 12.966 323.758,16.994 327.487,21.580 329.229 C 23.596 329.995,26.278 330.007,200.698 330.002 L 377.769 329.997 380.328 328.799 C 389.838 324.349,391.200 320.886,391.200 301.164 L 391.200 286.800 200.587 286.800 C 41.346 286.800,9.941 286.888,9.769 287.338 M33.897 295.807 C 37.620 296.912,38.800 299.045,39.205 305.400 C 39.824 315.117,37.235 319.323,30.614 319.356 C 23.643 319.392,21.200 316.237,21.200 307.199 C 21.200 297.476,25.755 293.389,33.897 295.807 M118.703 295.808 C 123.509 297.235,125.691 304.146,124.037 312.696 C 122.309 321.627,108.475 321.644,106.416 312.717 C 103.746 301.142,109.589 293.102,118.703 295.808 M140.427 295.643 C 145.285 296.685,147.036 300.144,146.710 308.057 C 146.399 315.613,144.406 318.502,138.924 319.344 C 132.468 320.336,128.891 316.813,128.515 309.094 C 127.986 298.221,131.890 293.812,140.427 295.643 M192.831 296.173 C 194.391 296.943,195.836 298.607,196.199 300.054 C 196.490 301.212,192.031 303.093,191.657 301.970 C 190.942 299.826,187.886 298.914,186.400 300.400 C 184.789 302.011,185.712 303.131,190.104 304.895 C 196.206 307.346,198.190 310.699,196.265 315.307 C 193.552 321.800,180.000 319.841,180.000 312.956 C 180.000 312.480,184.214 311.642,184.363 312.089 C 185.263 314.790,189.329 315.663,190.938 313.500 C 192.096 311.943,191.068 310.625,187.759 309.427 C 183.056 307.724,181.454 306.307,180.765 303.241 C 179.435 297.324,186.627 293.111,192.831 296.173 M273.640 295.655 C 276.549 296.629,279.817 300.821,278.561 301.967 C 277.408 303.020,274.007 302.774,273.396 301.593 C 272.260 299.395,269.412 299.020,267.755 300.849 C 266.170 302.599,266.506 312.143,268.214 313.850 C 269.907 315.543,273.351 314.561,273.673 312.292 C 273.791 311.464,273.972 311.410,276.200 311.540 C 279.138 311.711,279.019 311.588,278.398 313.807 C 276.556 320.387,267.137 321.532,263.026 315.677 C 261.629 313.688,260.997 304.923,261.985 301.255 C 263.205 296.725,268.803 294.036,273.640 295.655 M374.854 296.259 C 378.266 298.252,378.790 300.823,375.969 301.735 L 373.937 302.391 372.621 300.995 C 370.692 298.949,367.586 299.280,367.606 301.529 C 367.617 302.741,368.200 303.176,371.988 304.795 C 377.303 307.066,378.400 308.335,378.400 312.207 C 378.400 319.995,365.219 322.142,362.165 314.851 C 361.309 312.808,361.430 312.593,363.700 312.127 L 365.800 311.695 367.131 313.248 C 368.712 315.092,370.984 315.416,372.400 314.000 C 374.198 312.202,373.250 310.866,368.895 309.061 C 362.514 306.416,360.496 302.431,363.348 298.109 C 365.208 295.290,371.471 294.283,374.854 296.259 M49.088 303.600 C 49.136 307.890,49.181 311.805,49.188 312.300 C 49.205 313.561,50.582 314.800,51.967 314.800 C 55.306 314.800,55.600 313.911,55.600 303.801 L 55.600 295.562 58.100 295.681 L 60.600 295.800 60.720 304.200 C 60.901 316.786,59.506 319.321,52.401 319.316 C 45.157 319.310,44.015 317.348,44.007 304.881 L 44.000 295.562 46.500 295.681 L 49.000 295.800 49.088 303.600 M80.600 297.800 L 80.600 299.800 77.907 299.918 L 75.215 300.036 75.107 309.318 L 75.000 318.600 72.500 318.719 L 70.000 318.838 70.000 309.419 L 70.000 300.000 67.200 300.000 L 64.400 300.000 64.400 298.067 C 64.400 295.451,63.980 295.570,72.775 295.692 L 80.600 295.800 80.600 297.800 M97.464 296.512 C 100.682 298.222,102.006 301.314,101.990 307.077 C 101.964 316.400,99.884 318.511,90.500 318.738 L 84.800 318.875 84.800 307.504 C 84.800 301.250,84.935 295.996,85.100 295.827 C 85.699 295.215,96.110 295.792,97.464 296.512 M164.370 296.605 C 168.154 298.828,168.600 306.174,165.115 308.852 L 164.267 309.504 165.199 312.052 C 165.712 313.453,166.552 315.449,167.066 316.487 C 167.580 317.524,168.000 318.477,168.000 318.604 C 168.000 318.731,166.709 318.782,165.131 318.718 L 162.262 318.600 160.762 314.600 C 158.289 308.001,156.101 308.875,156.451 316.323 L 156.558 318.600 154.079 318.719 L 151.600 318.838 151.600 307.182 L 151.600 295.525 157.300 295.662 C 162.133 295.779,163.209 295.923,164.370 296.605 M215.600 297.800 L 215.600 300.000 212.800 300.000 L 210.000 300.000 210.000 309.400 L 210.000 318.800 207.400 318.800 L 204.800 318.800 204.800 309.400 L 204.800 300.000 202.243 300.000 C 199.528 300.000,199.200 299.763,199.200 297.800 C 199.200 295.559,199.041 295.600,207.643 295.600 L 215.600 295.600 215.600 297.800 M230.867 296.012 C 235.362 297.260,236.904 303.706,233.709 307.892 L 232.320 309.711 233.960 313.989 C 234.862 316.342,235.600 318.387,235.600 318.534 C 235.600 318.680,234.444 318.800,233.031 318.800 L 230.462 318.800 228.859 314.700 C 227.271 310.636,227.244 310.599,225.828 310.476 L 224.400 310.352 224.400 314.595 L 224.400 318.838 221.900 318.719 L 219.400 318.600 219.360 311.200 C 219.339 307.130,219.410 301.955,219.519 299.700 L 219.718 295.600 224.559 295.602 C 227.222 295.603,230.060 295.788,230.867 296.012 M245.200 304.536 C 245.431 314.622,245.616 315.118,248.980 314.667 C 251.501 314.328,252.554 310.386,251.831 303.993 C 251.684 302.694,251.687 300.274,251.837 298.616 L 252.110 295.600 254.423 295.600 L 256.736 295.600 257.016 298.209 C 257.628 303.925,257.071 313.221,255.987 315.386 C 253.416 320.521,243.545 320.686,240.918 315.637 C 240.039 313.949,240.000 313.486,240.000 304.718 L 240.000 295.562 242.500 295.681 L 245.000 295.800 245.200 304.536 M297.744 297.441 C 298.080 299.893,297.964 300.000,294.984 300.000 L 292.415 300.000 292.307 309.300 L 292.200 318.600 289.700 318.719 L 287.200 318.838 287.200 309.419 L 287.200 300.000 284.400 300.000 L 281.600 300.000 281.600 297.800 L 281.600 295.600 289.546 295.600 L 297.491 295.600 297.744 297.441 M306.400 304.536 C 306.624 314.316,306.783 314.800,309.768 314.800 C 312.538 314.800,312.578 314.667,312.800 304.733 L 313.000 295.800 315.526 295.680 L 318.052 295.560 317.926 305.280 C 317.766 317.647,316.779 319.353,309.800 319.332 C 302.571 319.310,301.206 316.965,301.202 304.567 C 301.200 295.007,301.037 295.526,303.984 295.683 L 306.200 295.800 306.400 304.536 M336.058 296.365 C 339.788 298.217,340.600 304.722,337.537 308.211 L 336.307 309.611 338.109 314.206 L 339.912 318.800 337.211 318.800 L 334.511 318.800 333.280 315.868 C 332.603 314.255,331.931 312.463,331.785 311.884 C 330.731 307.684,328.400 309.573,328.400 314.627 L 328.400 318.838 325.910 318.719 L 323.421 318.600 323.277 307.676 C 323.198 301.668,323.239 296.476,323.368 296.138 C 323.675 295.339,334.377 295.530,336.058 296.365 M358.000 297.800 L 358.000 300.000 353.838 300.000 L 349.675 300.000 349.403 301.982 C 349.029 304.696,349.163 304.800,353.024 304.800 L 356.400 304.800 356.400 307.000 L 356.400 309.200 353.000 309.200 L 349.600 309.200 349.600 311.786 L 349.600 314.373 353.900 314.486 L 358.200 314.600 358.319 316.655 L 358.439 318.710 352.519 318.867 C 349.264 318.953,346.105 318.953,345.500 318.867 L 344.400 318.709 344.400 307.155 L 344.400 295.600 351.200 295.600 L 358.000 295.600 358.000 297.800 M28.795 300.033 C 26.785 300.774,25.789 305.728,26.584 311.032 C 27.286 315.712,32.570 316.290,33.610 311.800 C 35.383 304.148,33.057 298.464,28.795 300.033 M114.108 299.867 C 112.089 300.289,111.600 301.686,111.600 307.035 C 111.600 313.719,112.562 315.309,116.196 314.627 C 118.255 314.241,118.865 313.027,119.103 308.842 C 119.525 301.449,118.173 299.020,114.108 299.867 M136.143 299.997 C 134.340 300.724,134.000 301.846,134.000 307.070 C 134.000 313.798,135.057 315.472,138.729 314.562 C 140.791 314.052,141.358 312.690,141.535 307.822 C 141.780 301.100,139.959 298.457,136.143 299.997 M89.867 300.267 C 89.720 300.413,89.600 303.653,89.600 307.467 L 89.600 314.400 91.581 314.400 C 95.754 314.400,96.400 313.410,96.400 307.014 C 96.400 301.771,96.300 301.376,94.771 300.585 C 93.623 299.991,90.354 299.779,89.867 300.267 M156.667 300.267 C 156.520 300.413,156.400 301.763,156.400 303.267 L 156.400 306.000 158.751 306.000 C 162.059 306.000,163.857 302.347,161.424 300.568 C 160.639 299.994,157.159 299.774,156.667 300.267 M224.400 303.000 L 224.400 306.000 226.524 306.000 C 229.088 306.000,229.945 305.446,230.245 303.599 C 230.620 301.287,229.307 300.000,226.571 300.000 L 224.400 300.000 224.400 303.000 M328.400 302.992 C 328.400 306.448,328.867 306.844,331.964 306.010 C 336.200 304.869,334.954 300.000,330.426 300.000 L 328.400 300.000 328.400 302.992 " stroke="none" fill="#080606" fill-rule="evenodd"></path><path id="path2" d="M0.000 200.000 L 0.000 400.000 200.000 400.000 L 400.000 400.000 400.000 200.000 L 400.000 0.000 200.000 0.000 L 0.000 0.000 0.000 200.000 M101.973 52.982 C 109.723 55.297,139.237 63.076,168.027 70.392 C 172.992 71.654,177.582 73.013,178.227 73.413 C 178.872 73.812,180.324 74.734,181.453 75.460 C 184.080 77.149,195.081 83.847,199.943 86.717 L 203.686 88.926 206.743 88.216 C 208.424 87.826,221.050 84.542,234.800 80.920 C 248.550 77.297,261.150 73.977,262.800 73.543 C 264.450 73.108,267.510 72.297,269.600 71.739 C 271.690 71.182,274.390 70.493,275.600 70.208 C 276.810 69.923,280.140 69.047,283.000 68.262 C 285.860 67.476,290.180 66.295,292.600 65.636 L 296.999 64.438 309.600 69.645 C 316.530 72.509,323.820 75.548,325.800 76.398 C 327.780 77.248,331.920 78.962,335.000 80.208 C 338.080 81.453,341.140 82.716,341.800 83.015 C 342.460 83.314,345.070 84.398,347.600 85.424 C 352.001 87.210,353.997 88.032,359.100 90.159 C 371.256 95.226,376.506 97.382,378.200 98.004 C 381.094 99.066,386.957 101.604,387.256 101.926 C 387.396 102.076,387.272 104.180,386.979 106.600 C 386.687 109.020,386.437 111.225,386.424 111.500 C 386.408 111.837,385.675 112.000,384.171 112.000 L 381.942 112.000 382.215 147.700 C 382.365 167.335,382.531 183.448,382.585 183.507 C 382.638 183.566,384.283 183.808,386.241 184.045 C 391.674 184.702,393.235 187.590,389.021 189.192 C 388.551 189.371,356.314 189.631,317.383 189.771 C 278.452 189.911,241.855 190.109,236.054 190.211 C 202.708 190.796,34.344 190.156,26.658 189.415 C 21.880 188.954,23.252 186.910,28.800 186.223 C 30.010 186.073,32.530 185.695,34.400 185.383 C 36.270 185.072,39.997 184.451,42.682 184.005 C 45.367 183.559,48.023 183.019,48.584 182.806 L 49.604 182.418 49.502 145.509 L 49.400 108.600 45.600 108.107 C 43.510 107.836,40.990 107.476,40.000 107.307 L 38.200 107.000 38.084 103.732 L 37.969 100.465 51.684 88.968 C 59.228 82.645,66.126 76.825,67.014 76.036 C 67.902 75.246,69.170 74.150,69.834 73.600 C 70.497 73.050,74.790 69.450,79.373 65.600 C 92.700 54.406,96.163 51.621,96.773 51.610 C 97.088 51.605,99.428 52.222,101.973 52.982 M94.559 59.739 C 93.437 60.653,89.117 64.270,84.959 67.777 C 80.802 71.284,75.780 75.506,73.800 77.159 C 67.735 82.223,57.803 90.712,51.055 96.600 L 44.636 102.200 46.708 102.555 L 48.781 102.909 53.291 99.221 C 58.460 94.992,69.225 86.270,74.800 81.794 C 76.890 80.115,79.860 77.685,81.400 76.392 C 90.907 68.413,96.919 63.600,97.381 63.600 C 97.615 63.600,111.930 72.404,117.200 75.789 C 118.630 76.707,125.470 81.011,132.400 85.352 C 139.330 89.694,146.350 94.128,148.000 95.205 C 150.648 96.935,155.670 99.964,156.500 100.333 C 156.665 100.407,156.800 99.400,156.800 98.095 C 156.800 95.324,156.940 95.483,151.600 92.202 C 149.510 90.919,146.232 88.863,144.315 87.634 C 139.242 84.382,134.331 81.310,126.200 76.303 C 114.923 69.360,105.757 63.708,101.400 61.011 C 99.200 59.649,97.220 58.432,97.000 58.307 C 96.780 58.181,95.682 58.826,94.559 59.739 M119.877 65.159 C 120.359 65.561,123.869 67.746,127.677 70.014 C 131.485 72.282,136.001 75.006,137.713 76.069 C 139.426 77.131,140.914 78.000,141.022 78.000 C 141.129 78.000,141.978 78.481,142.909 79.068 C 143.839 79.655,145.230 80.524,146.000 80.999 C 146.770 81.473,148.120 82.315,149.000 82.870 C 157.733 88.377,164.569 92.219,163.689 91.127 C 162.164 89.232,145.499 78.548,132.600 71.194 C 128.036 68.592,119.785 64.390,119.286 64.413 C 119.129 64.421,119.395 64.756,119.877 65.159 M135.646 68.724 C 136.171 69.122,137.320 69.865,138.200 70.374 C 139.080 70.884,141.491 72.280,143.558 73.476 C 145.624 74.672,150.394 77.284,154.158 79.281 C 165.399 85.246,166.875 86.051,169.800 87.803 C 173.113 89.788,175.039 90.803,175.480 90.793 C 175.656 90.790,175.170 90.396,174.400 89.920 C 173.630 89.443,171.380 88.030,169.400 86.781 C 154.890 77.623,129.410 63.993,135.646 68.724 M160.407 76.536 C 162.651 78.044,175.207 84.464,175.634 84.322 C 175.849 84.250,174.624 83.453,172.912 82.551 C 171.201 81.648,167.535 79.715,164.767 78.255 C 159.610 75.535,157.936 74.875,160.407 76.536 M161.059 96.274 C 160.631 96.703,160.767 100.733,161.220 101.012 C 161.451 101.155,164.016 101.617,166.920 102.039 C 169.824 102.460,173.550 103.061,175.200 103.374 C 176.850 103.687,180.720 104.330,183.800 104.803 C 186.880 105.276,195.340 106.632,202.600 107.816 C 209.860 108.999,217.780 110.254,220.200 110.603 C 222.620 110.952,224.915 111.331,225.300 111.445 C 225.901 111.624,226.000 111.372,226.000 109.670 C 226.000 107.317,226.222 107.441,220.516 106.606 C 213.708 105.610,196.026 102.460,185.400 100.350 C 182.100 99.695,175.710 98.538,171.200 97.780 C 166.690 97.022,162.622 96.314,162.159 96.208 C 161.697 96.102,161.202 96.131,161.059 96.274 M55.065 102.333 L 53.600 103.834 53.600 143.117 L 53.600 182.400 55.200 182.400 C 56.080 182.400,56.802 182.265,56.804 182.100 C 57.143 155.580,57.225 101.263,56.926 101.078 C 56.708 100.943,55.871 101.508,55.065 102.333 M148.898 143.500 L 149.000 186.200 150.900 186.322 L 152.800 186.444 152.807 175.922 C 152.811 170.135,152.811 151.360,152.808 134.201 L 152.801 103.002 151.186 101.901 C 150.298 101.295,149.397 100.800,149.184 100.800 C 148.936 100.800,148.833 116.137,148.898 143.500 M229.520 105.280 C 229.840 105.600,230.000 107.355,230.000 110.538 L 230.000 115.317 225.000 115.039 L 220.000 114.761 220.000 146.781 L 220.000 178.800 220.900 178.795 C 221.395 178.792,225.040 178.523,229.000 178.197 C 232.960 177.872,236.335 177.604,236.500 177.603 C 236.665 177.601,236.800 161.418,236.800 141.641 L 236.800 105.682 234.267 105.241 C 230.791 104.636,228.891 104.651,229.520 105.280 M242.000 144.375 L 242.000 182.400 243.402 182.400 L 244.804 182.400 244.702 144.500 L 244.600 106.600 243.300 106.475 L 242.000 106.349 242.000 144.375 M250.288 121.300 C 250.021 136.709,250.111 175.844,250.414 176.147 C 250.854 176.587,264.940 176.834,274.300 176.566 L 284.000 176.289 283.982 150.644 L 283.963 125.000 282.642 121.202 L 281.321 117.405 277.760 116.289 C 271.294 114.262,251.234 108.402,250.756 108.401 C 250.621 108.400,250.411 114.205,250.288 121.300 M89.000 111.677 C 82.840 111.869,77.575 112.105,77.300 112.201 C 76.905 112.338,76.800 119.773,76.800 147.569 L 76.800 182.764 78.100 182.970 C 79.664 183.219,97.305 184.035,103.200 184.131 L 107.400 184.200 107.502 147.700 L 107.604 111.200 103.902 111.263 C 101.866 111.298,95.160 111.484,89.000 111.677 M362.600 111.455 C 361.500 111.525,357.450 111.773,353.600 112.006 C 349.750 112.239,343.450 112.686,339.600 112.999 C 335.750 113.311,329.540 113.759,325.800 113.993 C 322.060 114.228,314.140 114.776,308.200 115.213 C 302.260 115.649,295.915 116.111,294.100 116.239 L 290.800 116.472 290.800 146.584 L 290.800 176.697 292.700 176.946 C 293.745 177.083,300.270 177.553,307.200 177.990 C 314.130 178.427,321.600 178.963,323.800 179.182 C 326.000 179.401,332.030 179.857,337.200 180.197 C 342.370 180.536,347.171 180.906,347.868 181.019 C 349.158 181.228,366.891 182.389,368.900 182.396 L 370.000 182.400 369.990 149.700 L 369.980 117.000 368.286 114.200 C 366.450 111.167,366.530 111.206,362.600 111.455 M374.800 147.225 L 374.800 182.851 376.100 182.725 L 377.400 182.600 377.524 155.600 C 377.592 140.750,377.527 124.775,377.380 120.100 L 377.111 111.600 375.956 111.600 L 374.800 111.600 374.800 147.225 M103.112 129.200 C 103.173 136.350,103.124 142.608,103.003 143.106 L 102.782 144.013 91.891 143.906 L 81.000 143.800 81.140 130.400 C 81.217 123.030,81.366 116.910,81.472 116.800 C 81.691 116.572,94.481 116.129,99.600 116.171 L 103.000 116.200 103.112 129.200 M175.185 117.725 C 175.011 118.568,174.891 147.104,175.056 148.300 L 175.291 150.000 187.650 150.000 L 200.010 150.000 199.905 134.900 L 199.800 119.800 195.600 119.514 C 191.328 119.223,178.865 118.114,176.500 117.815 C 175.785 117.724,175.193 117.684,175.185 117.725 M87.900 118.698 L 84.000 118.829 84.000 130.214 L 84.000 141.600 90.300 141.597 C 93.765 141.595,97.545 141.480,98.700 141.341 L 100.800 141.089 100.800 129.744 L 100.800 118.400 96.300 118.484 C 93.825 118.530,90.045 118.626,87.900 118.698 M186.802 122.201 C 187.035 122.345,187.200 124.757,187.200 128.024 L 187.200 133.600 183.850 133.600 C 182.008 133.600,179.938 133.488,179.250 133.350 L 178.000 133.100 178.000 127.290 L 178.000 121.479 182.202 121.717 C 184.513 121.848,186.583 122.066,186.802 122.201 M197.100 122.762 C 197.476 122.791,197.600 124.258,197.600 128.659 L 197.600 134.517 194.540 134.259 C 192.856 134.116,190.876 134.000,190.140 134.000 L 188.800 134.000 188.800 128.267 C 188.800 125.113,188.875 122.458,188.967 122.366 C 189.103 122.231,191.726 122.359,197.100 122.762 M186.865 135.440 C 187.049 135.554,187.200 138.157,187.200 141.224 L 187.200 146.800 182.600 146.800 L 178.000 146.800 178.000 140.741 L 178.000 134.682 182.265 134.958 C 184.611 135.110,186.681 135.327,186.865 135.440 M197.400 141.400 L 197.400 147.000 193.200 147.000 L 189.000 147.000 188.889 141.286 L 188.778 135.573 193.089 135.686 L 197.400 135.800 197.400 141.400 M102.971 149.029 C 103.723 149.780,103.772 150.468,103.120 151.120 C 101.775 152.465,99.945 150.828,101.042 149.262 C 101.761 148.235,102.133 148.190,102.971 149.029 M189.871 200.022 C 205.540 202.133,214.090 211.366,210.197 221.970 C 208.153 227.538,198.343 234.704,191.204 235.846 C 188.943 236.207,188.928 236.525,191.100 238.123 C 192.145 238.892,195.070 241.153,197.600 243.149 C 200.130 245.144,202.293 246.782,202.406 246.789 C 202.710 246.805,205.652 242.156,207.017 239.501 L 208.200 237.202 218.300 237.201 C 228.268 237.200,228.400 237.211,228.400 238.033 C 228.400 240.425,222.913 251.462,219.280 256.377 L 217.080 259.354 218.278 260.377 C 218.937 260.940,221.529 263.204,224.038 265.408 C 226.547 267.612,229.770 270.379,231.200 271.556 C 234.598 274.353,237.296 276.837,237.123 277.010 C 237.047 277.086,230.773 277.185,223.180 277.230 L 209.376 277.312 205.124 274.465 L 200.873 271.617 197.468 273.214 C 179.682 281.548,153.326 280.650,140.864 271.285 C 125.153 259.478,131.444 240.269,153.540 232.582 C 153.896 232.459,153.542 231.952,152.504 231.097 C 151.637 230.384,150.203 228.810,149.316 227.600 C 144.027 220.382,144.954 211.940,151.632 206.512 C 158.802 200.684,174.725 197.981,189.871 200.022 M101.246 200.419 C 119.710 201.561,129.196 210.631,129.229 227.174 C 129.254 239.607,123.774 248.266,113.142 252.594 C 107.789 254.773,106.123 254.904,81.306 255.085 L 58.413 255.253 58.306 266.126 L 58.200 277.000 44.252 277.000 L 30.304 277.000 30.369 238.835 C 30.404 217.844,30.528 200.516,30.644 200.329 C 30.914 199.892,94.026 199.972,101.246 200.419 M282.141 202.100 C 282.883 203.255,284.536 205.910,285.814 208.000 C 287.092 210.090,288.931 213.060,289.900 214.600 C 290.869 216.140,293.925 221.090,296.691 225.600 C 305.087 239.289,306.893 242.070,307.166 241.728 C 308.096 240.561,315.276 229.216,321.802 218.600 C 331.469 202.874,332.897 200.614,333.359 200.306 C 334.187 199.754,366.715 199.941,367.076 200.500 C 367.489 201.138,367.712 250.967,367.368 265.900 L 367.109 277.200 354.154 277.200 L 341.200 277.200 341.200 253.800 C 341.200 240.930,341.052 230.400,340.871 230.400 C 340.449 230.400,339.569 231.729,332.134 243.600 C 320.654 261.927,315.804 269.619,313.400 273.313 L 311.000 277.000 305.916 277.112 L 300.833 277.224 300.155 275.912 C 299.782 275.190,298.354 272.800,296.981 270.600 C 295.608 268.400,290.749 260.570,286.184 253.200 C 281.620 245.830,276.876 238.236,275.642 236.324 C 274.409 234.412,272.860 231.982,272.200 230.924 L 271.000 229.000 270.800 253.000 L 270.600 277.000 257.300 277.105 L 244.000 277.211 244.000 238.605 L 244.000 200.000 262.396 200.000 L 280.792 200.000 282.141 202.100 M175.000 215.430 C 171.127 216.818,170.385 220.300,173.291 223.452 C 175.272 225.601,178.257 227.755,178.565 227.257 C 178.683 227.066,179.603 226.679,180.609 226.398 C 187.212 224.549,189.067 217.990,183.645 215.658 C 181.298 214.648,177.464 214.547,175.000 215.430 M58.400 227.827 L 58.400 236.853 75.709 236.727 L 93.019 236.600 95.620 235.319 C 103.365 231.505,103.010 221.746,95.043 219.430 C 93.221 218.900,90.139 218.800,75.638 218.800 L 58.400 218.800 58.400 227.827 M163.007 245.229 C 155.759 250.306,155.946 257.918,163.400 261.252 C 167.639 263.148,177.092 262.659,182.500 260.263 C 185.325 259.011,185.325 259.005,182.520 256.796 C 173.052 249.337,169.554 246.553,167.926 245.180 C 165.632 243.247,165.840 243.245,163.007 245.229 M391.269 294.300 C 391.539 309.767,391.147 317.086,389.906 319.736 C 388.384 322.984,384.212 327.065,380.608 328.832 L 377.817 330.200 201.627 330.302 C 8.835 330.414,23.024 330.579,18.922 328.176 C 15.831 326.364,12.509 322.920,11.107 320.073 L 9.800 317.419 9.682 302.110 L 9.564 286.800 200.351 286.800 L 391.138 286.800 391.269 294.300 M28.261 295.650 C 23.011 296.448,21.400 299.162,21.400 307.211 C 21.400 316.069,23.652 319.200,30.021 319.200 C 36.630 319.200,38.844 316.562,39.121 308.359 C 39.468 298.076,36.345 294.421,28.261 295.650 M267.482 295.770 C 265.440 296.319,263.552 297.836,262.464 299.800 C 261.374 301.770,261.523 312.830,262.670 315.000 C 266.395 322.053,278.800 319.762,278.800 312.022 C 278.800 310.945,274.018 311.400,273.777 312.500 C 273.169 315.277,269.197 315.725,267.477 313.211 C 266.562 311.874,266.493 302.954,267.384 301.231 C 268.483 299.105,271.474 298.984,273.083 301.000 C 274.064 302.230,274.419 302.399,276.000 302.394 C 278.677 302.385,278.979 302.063,278.181 300.068 C 276.631 296.196,272.327 294.467,267.482 295.770 M366.631 295.769 C 359.683 298.356,361.032 305.894,369.000 309.010 C 372.386 310.334,373.200 310.991,373.200 312.400 C 373.200 315.529,368.169 315.833,366.600 312.799 C 366.123 311.878,365.763 311.607,365.273 311.802 C 364.903 311.948,364.011 312.167,363.290 312.288 C 360.165 312.813,362.539 317.416,366.549 318.607 C 378.272 322.089,383.536 309.442,372.200 305.030 C 368.269 303.500,367.600 303.002,367.600 301.605 C 367.600 299.046,371.737 298.759,373.015 301.229 L 373.601 302.362 375.459 301.802 C 378.098 301.008,378.247 300.739,377.148 298.753 C 375.492 295.762,370.474 294.338,366.631 295.769 M44.166 296.145 C 43.379 298.196,44.230 314.705,45.196 316.113 C 47.947 320.124,56.789 320.104,59.468 316.080 C 60.640 314.320,60.866 312.000,60.721 303.200 L 60.600 295.800 58.200 295.800 L 55.800 295.800 55.600 304.459 C 55.369 314.479,55.261 314.800,52.132 314.800 C 49.084 314.800,48.803 313.883,48.801 303.900 L 48.800 295.600 46.587 295.600 C 45.089 295.600,44.307 295.776,44.166 296.145 M64.561 296.158 C 64.443 296.465,64.404 297.410,64.473 298.258 L 64.600 299.800 67.300 299.918 L 70.000 300.037 70.000 309.437 L 70.000 318.838 72.431 318.719 L 74.863 318.600 74.818 309.968 C 74.763 299.459,74.601 300.000,77.800 300.000 C 80.468 300.000,80.800 299.757,80.800 297.800 C 80.800 295.562,80.942 295.600,72.545 295.600 C 66.268 295.600,64.734 295.707,64.561 296.158 M85.074 295.860 C 84.923 296.010,84.800 301.233,84.800 307.467 L 84.800 318.800 89.180 318.800 C 99.499 318.800,101.736 316.776,101.777 307.400 C 101.818 298.121,99.945 296.146,90.769 295.794 C 87.787 295.680,85.224 295.709,85.074 295.860 M111.000 296.245 C 107.192 298.315,106.420 300.176,106.409 307.313 C 106.397 314.915,107.480 317.232,111.704 318.635 C 117.733 320.637,123.147 317.629,124.066 311.766 C 125.161 304.777,123.864 298.984,120.698 296.726 C 118.985 295.504,112.917 295.203,111.000 296.245 M133.148 296.402 C 131.278 297.391,129.739 299.234,129.218 301.112 C 128.647 303.167,128.693 312.152,129.285 314.125 C 131.099 320.182,141.123 321.153,144.994 315.647 C 147.147 312.586,146.994 301.080,144.762 298.243 C 142.689 295.607,136.508 294.627,133.148 296.402 M151.867 295.867 C 151.720 296.013,151.600 301.233,151.600 307.467 L 151.600 318.800 154.000 318.800 L 156.400 318.800 156.400 314.627 C 156.400 310.805,156.467 310.433,157.200 310.200 C 159.023 309.622,159.713 310.738,162.210 318.300 C 162.398 318.869,167.600 319.026,167.600 318.463 C 167.600 318.278,166.880 316.403,166.000 314.297 C 164.089 309.724,164.098 309.849,165.566 308.178 C 169.194 304.045,167.365 297.102,162.365 296.030 C 160.175 295.560,152.296 295.438,151.867 295.867 M183.696 296.398 C 178.046 299.843,180.220 306.519,187.930 309.399 C 191.204 310.621,192.073 311.645,191.291 313.360 C 190.261 315.620,185.816 315.390,184.737 313.021 C 184.206 311.856,183.377 311.748,181.375 312.585 L 179.976 313.169 180.607 314.679 C 183.079 320.594,193.776 320.864,196.196 315.072 C 198.082 310.557,196.098 307.468,189.600 304.807 C 185.582 303.161,184.765 302.035,186.400 300.400 C 187.950 298.850,191.600 299.833,191.600 301.800 C 191.600 302.520,191.667 302.516,194.171 301.668 C 196.543 300.864,196.689 300.547,195.500 298.782 C 193.331 295.564,187.121 294.310,183.696 296.398 M199.600 297.792 L 199.600 300.000 202.193 300.000 L 204.785 300.000 204.893 309.300 L 205.000 318.600 207.500 318.719 L 210.000 318.838 210.000 309.437 L 210.000 300.037 212.700 299.918 L 215.400 299.800 215.400 297.800 L 215.400 295.800 207.500 295.692 L 199.600 295.583 199.600 297.792 M219.600 307.200 L 219.600 318.800 222.000 318.800 L 224.400 318.800 224.400 314.587 C 224.400 310.054,224.590 309.660,226.535 310.148 C 227.195 310.313,227.609 310.852,227.949 311.987 C 228.213 312.869,228.955 314.763,229.598 316.195 L 230.767 318.800 233.183 318.800 C 234.512 318.800,235.600 318.754,235.600 318.697 C 235.600 318.640,234.800 316.552,233.822 314.057 L 232.045 309.520 232.965 308.660 C 236.115 305.716,236.009 299.464,232.769 297.099 C 231.243 295.986,229.116 295.620,224.100 295.610 L 219.600 295.600 219.600 307.200 M240.179 296.112 C 240.049 296.449,240.001 300.657,240.072 305.462 C 240.247 317.390,241.212 319.000,248.187 319.000 C 255.831 319.000,256.931 317.044,256.725 303.819 L 256.600 295.838 255.600 295.862 C 255.050 295.875,254.025 295.912,253.322 295.943 L 252.044 296.000 251.922 304.636 C 251.785 314.362,251.639 314.800,248.529 314.800 C 245.138 314.800,244.592 313.081,244.906 303.375 C 245.030 299.541,245.001 296.324,244.843 296.226 C 243.866 295.623,240.399 295.538,240.179 296.112 M281.679 297.691 L 281.800 299.800 284.493 299.918 L 287.185 300.036 287.293 309.318 L 287.400 318.600 289.700 318.720 L 292.000 318.840 292.000 309.438 L 292.000 300.037 294.700 299.918 L 297.400 299.800 297.400 297.800 L 297.400 295.800 289.479 295.691 L 281.558 295.583 281.679 297.691 M301.450 296.214 C 301.062 297.225,301.174 312.007,301.583 313.769 C 302.671 318.459,308.862 320.695,314.110 318.293 C 317.776 316.614,318.039 315.676,317.908 304.770 L 317.800 295.825 315.600 295.865 L 313.400 295.905 313.200 304.511 C 312.969 314.432,312.848 314.800,309.800 314.800 C 306.749 314.800,306.630 314.438,306.400 304.459 L 306.200 295.800 303.950 295.682 C 302.167 295.588,301.648 295.698,301.450 296.214 M323.600 307.200 L 323.600 318.800 326.000 318.800 L 328.400 318.800 328.400 314.400 L 328.400 310.000 329.813 310.000 C 330.805 310.000,331.292 310.208,331.450 310.700 C 332.017 312.464,334.201 317.851,334.530 318.300 C 334.911 318.818,339.600 319.032,339.600 318.531 C 339.600 318.216,337.799 313.563,336.972 311.740 C 336.198 310.035,336.250 309.458,337.255 308.562 C 339.940 306.170,339.881 299.836,337.152 297.324 C 335.816 296.095,333.313 295.621,328.100 295.610 L 323.600 295.600 323.600 307.200 M344.667 295.867 C 344.520 296.013,344.400 301.238,344.400 307.476 L 344.400 318.819 351.300 318.709 L 358.200 318.600 358.200 316.807 C 358.200 314.718,357.556 314.466,352.100 314.423 L 349.200 314.400 349.200 312.233 C 349.200 308.805,349.206 308.800,353.043 308.800 L 356.400 308.800 356.400 307.030 L 356.400 305.260 352.800 304.978 L 349.200 304.697 349.200 302.348 L 349.200 300.000 353.600 300.000 L 358.000 300.000 358.000 297.800 L 358.000 295.600 351.467 295.600 C 347.873 295.600,344.813 295.720,344.667 295.867 M32.678 300.566 L 33.800 301.532 33.800 307.157 C 33.800 313.709,33.254 314.880,30.200 314.880 C 27.283 314.880,26.623 313.634,26.468 307.834 C 26.270 300.384,28.896 297.311,32.678 300.566 M117.878 300.565 L 119.000 301.531 119.000 307.200 L 119.000 312.869 117.878 313.835 C 115.552 315.835,111.654 314.529,111.565 311.718 C 111.442 307.831,111.730 302.153,112.090 301.362 C 112.927 299.525,116.152 299.081,117.878 300.565 M140.559 300.780 C 142.426 302.645,141.895 312.787,139.856 314.216 C 135.852 317.020,132.543 311.390,133.830 303.967 C 134.558 299.770,137.942 298.167,140.559 300.780 M95.392 300.955 C 96.626 302.190,96.953 304.056,96.704 308.438 C 96.445 312.965,95.943 313.789,93.080 314.383 C 89.492 315.128,89.600 315.353,89.600 307.157 L 89.600 300.000 92.018 300.000 C 94.034 300.000,94.595 300.159,95.392 300.955 M161.777 300.889 C 163.590 303.477,162.109 306.000,158.777 306.000 L 156.400 306.000 156.400 303.000 L 156.400 300.000 158.777 300.000 C 160.781 300.000,161.253 300.140,161.777 300.889 M229.600 300.800 C 231.757 302.957,230.067 306.150,226.751 306.180 L 224.600 306.200 224.483 303.100 L 224.366 300.000 226.583 300.000 C 228.267 300.000,228.992 300.192,229.600 300.800 M333.600 300.800 C 335.757 302.957,334.067 306.150,330.751 306.180 L 328.600 306.200 328.483 303.100 L 328.366 300.000 330.583 300.000 C 332.267 300.000,332.992 300.192,333.600 300.800 " stroke="none" fill="#fbfbfb" fill-rule="evenodd"></path></g></svg>