<svg xmlns="http://www.w3.org/2000/svg" height="256" width="256" viewBox="-100 -100 600 600"><path d="M190 .125C121.015 3.879 60.073 41.337 25.971 100.944-8.218 160.705-8.866 235.939 24.29 296.065c35.607 64.569 101.825 103.787 175.31 103.829 43.722.025 84.164-13.097 118.6-38.482 76.773-56.594 103.134-158.228 63.55-245.012-21.022-46.09-60.253-83.388-107.54-102.242C254.872 6.447 236.825 2.305 214.2.383c-2.386-.202-21.478-.406-24.2-.258m22.5 37.969c97.643 7.962 165.811 98.53 146.472 194.603-6.87 34.129-25.589 66.241-52.172 89.498-58.704 51.36-145.711 53.726-207 5.629-55.721-43.727-76.745-118.212-52.088-184.538C72.858 75.642 140.833 32.25 212.5 38.094M125 168.8v18.8h150V150H125v18.8m0 68.7v18.9h150v-37.8H125v18.9" stroke="black" fill="black" /></svg>
