<svg id="svg" xmlns="http://www.w3.org/2000/svg" xmlns:xlink="http://www.w3.org/1999/xlink" width="400" height="366.87631027253667" viewBox="0, 0, 400,366.87631027253667"><g id="svgg"><path id="path0" d="M193.494 0.912 C 193.325 1.068,192.426 1.496,191.496 1.864 C 189.680 2.581,188.432 3.502,185.268 6.460 C 184.243 7.419,182.893 8.530,182.268 8.930 C 181.643 9.330,180.825 9.924,180.451 10.251 C 180.076 10.578,179.227 11.191,178.564 11.613 C 177.682 12.175,177.101 12.773,176.397 13.843 C 175.867 14.646,174.900 15.749,174.247 16.293 C 173.595 16.837,172.574 17.710,171.978 18.232 C 170.678 19.374,169.069 20.587,167.505 21.606 C 166.871 22.019,165.678 22.916,164.854 23.600 C 164.030 24.283,162.862 25.220,162.259 25.681 C 160.180 27.272,159.949 27.511,159.120 28.930 C 158.072 30.724,156.495 32.285,154.614 33.389 C 153.808 33.862,152.724 34.641,152.203 35.120 C 151.683 35.599,150.731 36.375,150.087 36.844 C 149.443 37.313,148.453 38.100,147.886 38.592 C 147.319 39.084,146.080 39.988,145.132 40.600 C 143.639 41.565,143.260 41.940,142.304 43.404 C 141.325 44.903,140.880 45.336,138.368 47.231 C 136.809 48.406,135.059 49.797,134.479 50.322 C 133.013 51.648,131.032 53.027,128.931 54.183 C 126.663 55.430,126.137 55.943,125.568 57.464 C 124.770 59.600,121.856 62.145,117.716 64.323 C 116.775 64.817,115.649 65.684,114.579 66.737 C 113.661 67.640,112.201 68.866,111.336 69.462 C 110.277 70.190,109.507 70.923,108.983 71.698 C 107.332 74.141,105.794 75.514,102.618 77.384 C 100.340 78.724,99.184 79.811,96.134 83.476 C 94.758 85.131,93.172 86.860,92.610 87.320 C 92.049 87.779,90.402 89.462,88.950 91.060 C 83.168 97.424,79.605 100.980,75.581 104.403 C 74.971 104.921,73.863 105.865,73.118 106.499 C 71.905 107.532,66.867 112.100,62.076 116.511 C 61.107 117.403,59.844 118.484,59.269 118.913 C 58.335 119.610,53.814 123.668,50.419 126.857 C 49.727 127.506,48.480 128.640,47.646 129.375 C 46.176 130.672,44.517 132.167,39.345 136.853 C 37.982 138.088,36.186 139.712,35.353 140.461 C 33.356 142.259,30.085 145.228,29.234 146.017 C 25.731 149.262,24.210 150.645,22.956 151.725 C 22.149 152.420,21.205 153.296,20.860 153.670 C 20.514 154.045,19.175 155.236,17.885 156.316 C 16.595 157.396,15.481 158.374,15.410 158.488 C 15.339 158.603,14.508 159.373,13.563 160.199 C 6.505 166.369,2.767 170.300,1.482 172.901 C 1.034 173.808,0.518 174.674,0.334 174.826 C 0.052 175.061,-0.000 175.671,-0.000 178.767 L 0.000 182.430 0.755 184.022 C 3.824 190.488,8.418 193.817,14.256 193.804 C 18.750 193.795,22.035 191.859,28.182 185.596 C 28.997 184.766,30.144 183.681,30.729 183.186 C 31.314 182.690,33.242 181.012,35.014 179.455 C 36.785 177.898,38.913 176.059,39.742 175.367 C 41.049 174.276,47.927 168.271,55.439 161.662 C 58.709 158.786,62.113 155.726,63.962 154.001 C 64.838 153.184,66.480 151.714,67.610 150.734 C 68.741 149.754,70.147 148.526,70.734 148.006 C 71.322 147.486,72.510 146.500,73.375 145.816 C 74.240 145.131,75.844 143.709,76.939 142.656 C 78.053 141.586,80.040 140.000,81.447 139.059 C 82.830 138.133,84.351 137.009,84.827 136.560 C 86.013 135.441,87.707 134.012,88.960 133.073 C 89.536 132.642,91.376 130.991,93.049 129.404 C 95.833 126.764,97.767 125.157,98.162 125.157 C 98.248 125.157,99.588 123.888,101.140 122.336 C 103.932 119.546,106.181 117.678,108.217 116.457 C 108.828 116.091,109.642 115.322,110.166 114.617 C 111.534 112.774,114.060 110.692,114.927 110.692 C 115.511 110.692,117.477 108.746,118.450 107.205 C 119.004 106.329,119.556 105.738,120.074 105.467 C 120.892 105.039,123.071 102.984,124.291 101.492 C 124.696 100.996,125.271 100.557,125.640 100.461 C 126.086 100.346,126.424 100.040,126.741 99.466 C 126.992 99.010,127.400 98.544,127.647 98.430 C 127.894 98.315,128.147 98.061,128.210 97.864 C 128.272 97.667,128.528 97.441,128.778 97.361 C 129.028 97.282,129.943 96.498,130.811 95.620 C 132.377 94.036,132.869 93.578,137.526 89.369 C 138.852 88.170,140.413 86.746,140.994 86.205 C 141.575 85.663,142.722 84.766,143.543 84.212 C 144.365 83.657,145.257 82.880,145.527 82.486 C 145.796 82.092,146.945 80.942,148.079 79.931 C 149.213 78.919,150.827 77.385,151.665 76.520 C 152.503 75.655,153.979 74.240,154.945 73.375 C 155.910 72.510,157.221 71.319,157.857 70.727 C 158.494 70.136,159.501 69.355,160.095 68.993 C 160.689 68.630,161.321 68.110,161.500 67.836 C 161.679 67.563,163.219 66.080,164.921 64.540 C 166.623 63.000,169.400 60.419,171.090 58.805 C 173.940 56.085,175.584 54.692,176.932 53.858 C 177.230 53.673,178.939 52.070,180.730 50.294 C 182.520 48.518,184.782 46.310,185.756 45.388 C 186.730 44.465,187.715 43.502,187.945 43.247 C 189.037 42.040,189.919 41.296,190.881 40.772 C 191.457 40.458,192.259 39.900,192.662 39.531 C 193.066 39.163,193.595 38.726,193.838 38.560 C 194.081 38.395,194.878 37.812,195.609 37.264 C 197.322 35.981,197.461 36.025,201.377 39.062 C 201.946 39.503,203.313 40.446,204.416 41.158 C 206.731 42.653,208.058 43.747,210.076 45.822 C 211.482 47.268,212.740 48.302,218.344 52.618 C 219.843 53.772,221.447 55.032,221.908 55.417 C 222.369 55.802,223.171 56.378,223.690 56.697 C 224.209 57.016,225.671 58.293,226.939 59.535 C 229.033 61.585,231.207 63.390,233.635 65.094 C 234.550 65.737,235.132 66.213,237.526 68.278 C 238.276 68.924,239.517 69.934,240.286 70.523 C 241.054 71.112,242.810 72.584,244.188 73.795 C 245.566 75.005,247.186 76.373,247.790 76.834 C 248.393 77.296,249.925 78.522,251.195 79.560 C 252.465 80.597,254.036 81.857,254.687 82.358 C 256.327 83.621,258.022 85.083,260.510 87.381 C 261.678 88.460,263.235 89.759,263.969 90.269 C 265.425 91.279,266.728 92.294,270.510 95.365 C 271.874 96.473,273.541 97.807,274.215 98.330 C 274.889 98.853,276.175 100.009,277.074 100.899 C 277.972 101.789,279.210 102.870,279.824 103.302 C 281.657 104.591,284.112 106.528,285.060 107.433 C 287.000 109.285,287.419 109.644,287.642 109.644 C 287.770 109.644,288.349 110.115,288.929 110.692 C 289.508 111.268,290.067 111.740,290.171 111.740 C 290.369 111.740,292.744 113.748,294.891 115.732 C 295.598 116.385,296.919 117.475,297.826 118.154 C 300.176 119.913,301.450 120.959,304.524 123.653 C 306.014 124.959,307.641 126.375,308.141 126.798 C 308.640 127.222,309.773 128.241,310.657 129.063 C 311.541 129.885,312.566 130.710,312.935 130.897 C 313.304 131.084,313.688 131.384,313.789 131.564 C 313.889 131.743,314.547 132.286,315.250 132.769 C 317.167 134.088,319.244 135.643,320.344 136.583 C 320.884 137.044,322.066 137.987,322.971 138.679 C 323.876 139.371,325.186 140.550,325.882 141.300 C 327.980 143.558,328.701 144.216,329.560 144.654 C 330.012 144.885,331.163 145.664,332.119 146.386 C 333.782 147.643,334.523 148.280,336.627 150.262 C 337.147 150.752,337.659 151.153,337.764 151.153 C 338.112 151.153,342.799 155.615,343.324 156.445 C 343.705 157.050,344.174 157.412,345.137 157.844 C 346.941 158.655,349.007 160.147,350.067 161.405 C 350.559 161.988,351.594 162.911,352.367 163.456 C 354.377 164.872,355.552 165.830,356.269 166.635 C 356.612 167.021,357.394 167.620,358.006 167.965 C 359.120 168.594,359.516 169.038,360.243 170.473 C 360.688 171.351,363.287 173.667,364.990 174.704 C 368.425 176.796,369.142 177.264,369.821 177.860 C 371.257 179.117,373.221 180.613,374.146 181.153 C 374.660 181.452,375.617 182.227,376.272 182.876 C 380.796 187.351,390.773 186.183,394.815 180.705 C 395.365 179.960,396.099 178.973,396.448 178.512 C 398.485 175.813,399.617 173.609,399.434 172.695 C 399.342 172.234,399.401 172.013,399.654 171.871 C 400.045 171.652,400.183 166.595,399.805 166.361 C 399.697 166.295,399.493 165.699,399.351 165.038 C 399.209 164.377,398.967 163.688,398.813 163.506 C 398.659 163.323,398.532 162.992,398.532 162.770 C 398.532 162.547,398.348 162.250,398.124 162.110 C 397.899 161.969,397.651 161.514,397.573 161.098 C 397.489 160.650,396.908 159.652,396.147 158.650 C 395.441 157.719,394.675 156.707,394.444 156.401 C 393.475 155.115,392.360 154.106,390.942 153.234 C 390.113 152.724,388.980 151.862,388.424 151.318 C 387.869 150.775,387.085 150.174,386.682 149.983 C 386.280 149.792,385.374 149.081,384.669 148.402 C 383.964 147.723,382.984 146.988,382.490 146.770 C 381.997 146.552,381.136 145.908,380.577 145.338 C 380.017 144.769,379.359 144.169,379.113 144.005 C 378.868 143.841,378.491 143.337,378.275 142.885 C 378.059 142.432,377.633 141.914,377.327 141.734 C 375.845 140.855,374.662 140.033,373.143 138.826 C 372.229 138.099,371.129 137.380,370.699 137.228 C 369.429 136.779,365.643 134.133,363.097 131.915 C 362.664 131.538,361.959 130.720,361.530 130.097 C 360.774 129.000,360.317 128.680,358.281 127.826 C 357.408 127.460,355.951 126.279,353.606 124.038 C 352.661 123.134,351.604 122.248,351.258 122.070 C 349.743 121.289,346.787 118.646,345.759 117.155 C 344.966 116.004,344.419 115.581,343.349 115.292 C 342.919 115.176,342.136 114.707,341.608 114.250 C 341.080 113.794,340.457 113.317,340.222 113.192 C 339.987 113.066,339.347 112.617,338.800 112.194 C 338.252 111.772,337.435 111.146,336.984 110.805 C 336.533 110.463,335.730 109.789,335.201 109.307 C 334.671 108.825,333.916 108.270,333.524 108.073 C 333.131 107.876,332.526 107.437,332.180 107.097 C 331.834 106.757,331.155 106.177,330.671 105.807 C 330.186 105.438,329.227 104.665,328.540 104.088 C 327.853 103.512,326.882 102.780,326.381 102.461 C 324.861 101.495,323.372 100.374,321.977 99.146 C 321.247 98.504,320.320 97.755,319.916 97.483 C 319.513 97.211,318.791 96.652,318.312 96.241 C 317.833 95.829,316.723 94.927,315.845 94.235 C 314.968 93.543,313.568 92.340,312.736 91.562 C 311.903 90.784,311.134 90.147,311.027 90.147 C 310.920 90.147,310.682 90.002,310.500 89.824 C 310.317 89.647,309.696 89.203,309.119 88.836 C 308.543 88.470,307.880 87.955,307.645 87.691 C 307.411 87.428,307.116 87.212,306.990 87.212 C 306.864 87.212,306.395 86.788,305.948 86.271 C 305.502 85.754,305.021 85.329,304.881 85.328 C 304.741 85.326,304.316 85.016,303.938 84.638 C 303.559 84.260,302.943 83.824,302.568 83.669 C 302.193 83.514,301.887 83.257,301.887 83.098 C 301.887 82.939,301.799 82.809,301.692 82.809 C 301.585 82.809,301.373 82.691,301.220 82.546 C 300.434 81.800,298.542 80.318,297.604 79.715 C 297.019 79.339,296.305 78.717,296.017 78.334 C 295.257 77.323,293.177 75.558,291.722 74.688 C 290.565 73.997,289.287 72.924,286.792 70.548 C 286.274 70.054,285.330 69.306,284.696 68.886 C 281.836 66.993,280.226 65.716,275.249 61.392 C 274.233 60.509,272.725 59.236,271.898 58.562 C 271.071 57.889,269.862 56.889,269.212 56.342 C 268.562 55.794,267.684 55.114,267.261 54.830 C 266.838 54.547,266.431 54.215,266.355 54.093 C 266.280 53.971,265.541 53.413,264.713 52.853 C 263.885 52.293,263.019 51.621,262.788 51.359 C 262.558 51.098,261.161 49.883,259.685 48.660 C 258.209 47.437,256.417 45.940,255.702 45.333 C 254.987 44.727,253.553 43.569,252.516 42.759 C 251.478 41.950,250.063 40.814,249.371 40.234 C 248.679 39.654,247.358 38.614,246.436 37.923 C 244.848 36.734,243.711 35.779,239.450 32.061 C 238.449 31.188,237.206 30.184,236.688 29.830 C 236.169 29.476,234.921 28.492,233.915 27.643 C 232.909 26.795,231.404 25.629,230.571 25.052 C 229.738 24.476,228.868 23.816,228.638 23.585 C 228.217 23.164,226.642 21.827,223.021 18.819 C 221.948 17.927,220.503 16.691,219.811 16.072 C 219.119 15.454,218.153 14.696,217.662 14.389 C 217.172 14.082,216.771 13.753,216.771 13.657 C 216.771 13.562,216.444 13.307,216.045 13.092 C 215.645 12.877,215.123 12.437,214.885 12.115 C 214.647 11.794,214.338 11.529,214.197 11.527 C 214.056 11.526,213.524 11.148,213.015 10.689 C 212.505 10.229,211.924 9.853,211.724 9.853 C 211.515 9.853,211.126 9.453,210.808 8.911 C 210.505 8.393,209.953 7.814,209.583 7.626 C 209.213 7.437,208.344 6.790,207.652 6.188 C 206.960 5.586,206.095 4.939,205.729 4.751 C 205.364 4.563,204.873 4.140,204.640 3.812 C 204.138 3.108,201.162 1.524,199.987 1.336 C 199.537 1.264,199.062 1.076,198.930 0.917 C 198.592 0.510,193.934 0.506,193.494 0.912 M209.958 133.878 C 209.193 134.103,207.975 134.175,205.451 134.145 C 203.548 134.123,201.048 134.175,199.895 134.261 C 198.375 134.375,197.280 134.332,195.912 134.106 C 194.874 133.934,193.960 133.834,193.880 133.883 C 193.183 134.312,184.581 134.569,180.294 134.290 C 178.121 134.148,177.478 134.177,176.534 134.460 C 175.220 134.853,170.184 134.940,168.971 134.589 C 167.712 134.225,161.717 134.302,160.273 134.701 C 159.581 134.892,158.260 135.076,157.338 135.111 C 150.895 135.351,144.700 137.667,142.369 140.705 C 141.896 141.320,140.894 142.531,140.142 143.396 C 139.390 144.261,138.625 145.299,138.442 145.702 C 138.259 146.106,137.788 146.875,137.395 147.412 C 136.144 149.122,135.052 152.434,134.798 155.287 C 134.677 156.645,134.428 158.370,134.244 159.119 C 133.962 160.269,133.933 161.269,134.055 165.521 C 134.182 169.914,134.157 170.680,133.857 171.496 C 133.078 173.614,133.038 173.995,133.331 176.408 C 133.486 177.680,133.591 179.853,133.565 181.237 C 133.524 183.371,133.586 183.943,133.972 185.010 C 134.506 186.487,134.780 190.307,134.911 198.113 C 134.956 200.823,135.094 204.531,135.217 206.353 C 135.340 208.176,135.394 209.741,135.338 209.832 C 135.282 209.923,135.330 211.781,135.445 213.961 C 135.561 216.141,135.686 220.094,135.724 222.746 C 135.763 225.398,135.908 230.210,136.049 233.438 C 136.297 239.164,136.381 242.064,136.862 261.530 C 136.990 266.719,137.191 273.747,137.308 277.149 C 137.426 280.550,137.570 286.022,137.630 289.308 C 137.689 292.594,137.834 298.632,137.953 302.725 C 138.535 322.882,138.582 328.378,138.177 328.788 C 137.829 329.141,137.166 329.175,129.225 329.259 C 124.509 329.309,117.867 329.448,114.465 329.569 C 101.715 330.022,92.711 330.235,83.962 330.289 C 65.525 330.404,55.053 330.631,53.358 330.952 C 35.223 334.388,34.032 360.412,51.787 365.271 C 56.889 366.668,57.384 366.737,62.002 366.708 C 68.184 366.668,68.756 366.671,74.716 366.769 C 78.601 366.833,80.269 366.790,80.586 366.615 C 80.897 366.443,83.589 366.357,89.727 366.323 C 99.673 366.267,105.500 366.176,120.126 365.849 C 125.833 365.722,133.003 365.574,136.059 365.522 C 154.767 365.200,159.088 365.022,161.412 364.476 C 162.630 364.190,164.265 363.815,165.046 363.642 C 170.778 362.371,176.618 357.375,178.531 352.106 C 180.877 345.643,181.006 343.325,180.519 316.562 C 180.022 289.303,179.856 276.871,179.980 276.305 C 180.220 275.214,179.831 275.247,193.850 275.137 C 201.095 275.081,207.731 274.957,208.595 274.862 C 209.460 274.767,212.149 274.759,214.570 274.842 C 218.483 274.978,223.035 274.826,224.214 274.522 C 224.444 274.462,226.259 274.324,228.246 274.216 C 232.888 273.962,238.383 273.019,241.530 271.937 C 242.166 271.718,243.105 271.474,243.618 271.394 C 247.086 270.853,254.369 268.258,257.862 266.317 C 258.726 265.837,259.996 265.298,260.683 265.120 C 261.370 264.943,262.171 264.609,262.465 264.379 C 262.758 264.150,263.988 263.330,265.199 262.557 C 268.237 260.619,269.334 259.735,272.117 256.982 C 279.097 250.078,281.088 247.579,285.369 240.356 C 285.779 239.665,286.367 238.391,286.676 237.526 C 286.985 236.661,287.561 235.237,287.957 234.360 C 289.217 231.564,290.861 225.285,291.080 222.432 C 291.156 221.452,291.354 219.990,291.522 219.182 C 292.474 214.597,292.854 208.530,292.889 197.379 C 292.923 186.621,293.046 187.346,289.628 178.197 C 289.348 177.448,288.924 176.059,288.687 175.111 C 288.449 174.163,287.867 172.370,287.394 171.128 C 286.920 169.885,286.319 168.251,286.057 167.497 C 285.795 166.743,285.288 165.663,284.929 165.097 C 284.570 164.532,284.277 163.959,284.277 163.825 C 284.277 163.691,283.916 163.167,283.475 162.661 C 283.034 162.154,282.169 160.797,281.553 159.644 C 280.937 158.491,280.220 157.290,279.961 156.975 C 279.701 156.660,279.097 155.693,278.619 154.827 C 277.962 153.636,277.460 153.035,276.562 152.360 C 275.908 151.869,274.381 150.512,273.169 149.345 C 270.824 147.088,267.594 144.594,266.038 143.840 C 265.159 143.414,263.074 142.063,261.831 141.114 C 260.995 140.475,257.111 138.785,256.473 138.782 C 256.257 138.781,255.563 138.539,254.931 138.245 C 253.520 137.588,251.080 136.897,250.172 136.897 C 249.801 136.897,248.762 136.671,247.862 136.394 C 245.043 135.525,241.755 134.912,238.260 134.602 C 236.992 134.490,235.010 134.291,233.857 134.160 C 231.714 133.916,220.025 133.635,217.191 133.759 C 214.480 133.877,212.714 133.863,211.845 133.714 C 211.317 133.624,210.619 133.685,209.958 133.878 M215.618 170.242 C 223.344 170.819,230.791 172.509,235.053 174.652 C 241.981 178.135,245.985 183.866,248.516 193.920 C 250.034 199.952,250.053 211.015,248.553 215.933 C 245.578 225.691,238.940 232.788,229.769 236.018 C 228.789 236.363,227.516 236.831,226.939 237.059 C 225.991 237.432,223.426 237.992,220.021 238.568 C 215.934 239.260,199.097 240.295,192.767 240.244 C 179.017 240.132,179.691 240.161,179.189 239.660 C 178.631 239.102,178.631 239.091,178.112 204.298 C 177.934 192.306,177.735 180.182,177.671 177.356 C 177.551 172.043,177.654 171.062,178.369 170.729 C 178.713 170.568,197.967 170.129,207.757 170.058 C 210.466 170.039,214.004 170.121,215.618 170.242 " stroke="none" fill="#000000" fill-rule="evenodd"></path></g></svg>